# https://github.com/mikedh/trimesh
mtllib material.mtl

o banana_g.obj
usemtl material_0
v 0.03472023 0.00026857 0.00019146
v 0.04120162 -0.00041367 0.00019146
v 0.03949603 0.00402101 0.00019146
v 0.03233225 0.00572660 0.00053258
v 0.03744917 -0.00416612 0.00053258
v 0.02755645 0.00265655 0.00053258
v 0.02994427 -0.00211941 0.00087370
v 0.04529519 0.00197415 0.00053258
v 0.03813140 0.00913793 0.00121481
v 0.04427183 0.00640900 0.00121481
v 0.04495407 -0.00518947 0.00053258
v 0.04802428 -0.00211941 0.00053258
v 0.02448624 0.00743235 0.00087370
v 0.01971044 0.00470325 0.00121481
v 0.02278049 0.00026857 0.00155593
v 0.03028539 0.01118480 0.00121481
v 0.04154273 -0.00894191 0.00155593
v 0.03335560 -0.00689521 0.00189705
v 0.05143561 -0.00723633 0.00087370
v 0.04904763 -0.01098878 0.00121481
v 0.05075338 0.00129192 0.00155593
v 0.04836540 0.00470325 0.00155593
v 0.05416471 -0.00348388 0.00189705
v 0.01595799 0.00947905 0.00121481
v 0.02175714 0.01289038 0.00121481
v 0.02550959 -0.00416612 0.00292056
v 0.05450583 -0.01269436 0.00189705
v 0.05689364 -0.00894191 0.00257944
v 0.01152331 0.00640900 0.00189705
v 0.01288778 0.01459613 0.00155593
v 0.00811198 0.01084368 0.00189705
v 0.01527576 0.00197415 0.00257944
v 0.02755645 0.01630171 0.00223833
v 0.01902821 0.01834858 0.00223833
v 0.03608470 0.01425501 0.00223833
v 0.04324848 0.01118480 0.00257944
v 0.04870652 0.00811458 0.00292056
v 0.04631870 -0.01474123 0.00257944
v 0.05245896 -0.01644681 0.00257944
v 0.00470065 0.01561948 0.00189705
v 0.01049980 0.01971304 0.00257944
v 0.01834581 -0.00177830 0.00394391
v 0.03881380 -0.01201213 0.00326168
v 0.05280008 0.00470325 0.00326168
v 0.05621141 0.00026857 0.00326168
v -0.00007515 0.01186703 0.00223833
v -0.00348648 0.01630171 0.00257944
v 0.00231267 0.02073639 0.00292056
v 0.00367730 0.00743235 0.00257944
v 0.00777086 0.00367990 0.00360279
v 0.02994427 -0.00894191 0.00462614
v 0.05928163 -0.00484835 0.00360279
v 0.05723476 -0.01781144 0.00360279
v 0.05928163 -0.01405899 0.00360279
v -0.00758005 0.01220815 0.00257944
v -0.00382760 0.00811458 0.00326168
v 0.02516847 0.02141863 0.00394391
v 0.01664022 0.02312438 0.00394391
v 0.03369672 0.01903081 0.00394391
v 0.04120162 0.01596059 0.00428503
v -0.01099138 0.01664283 0.00292056
v -0.01508495 0.01220815 0.00292056
v -0.01133250 0.00811458 0.00360279
v -0.00587447 0.02141863 0.00326168
v 0.00026596 0.00436213 0.00428503
v 0.00811198 0.02448884 0.00428503
v 0.01152331 -0.00007255 0.00530838
v 0.04802428 0.01220815 0.00462614
v 0.05075338 -0.02054038 0.00428503
v 0.04461295 -0.01815256 0.00462614
v 0.05552918 -0.02190501 0.00462614
v 0.06166961 -0.01030655 0.00462614
v -0.01951963 0.01698395 0.00326168
v -0.02395447 0.01254926 0.00326168
v -0.01951963 0.00811458 0.00360279
v -0.01406160 0.02175974 0.00394391
v -0.00041627 0.02517107 0.00462614
v 0.02209826 -0.00587186 0.00633189
v 0.05314120 0.00811458 0.00496726
v -0.02907139 0.01698395 0.00360279
v -0.03350607 0.01254926 0.00360279
v -0.02873027 0.00777346 0.00394391
v -0.02361320 0.02175974 0.00428503
v -0.00860356 0.02585347 0.00496726
v -0.00723893 0.00436213 0.00496726
v 0.03676694 -0.01508234 0.00633189
v 0.05723476 0.00402101 0.00530838
v 0.06064609 -0.00109590 0.00564949
v -0.03998762 0.01664283 0.00394391
v -0.04374007 0.01220815 0.00394391
v -0.03828187 0.00743235 0.00394391
v -0.03452942 0.02141863 0.00462614
v -0.01474383 0.00436213 0.00530838
v -0.02327208 0.00402101 0.00530838
v 0.00435953 0.00095080 0.00633189
v 0.06098721 -0.01849368 0.00496726
v 0.05962274 -0.02258724 0.00564949
v 0.06337519 -0.01576458 0.00599077
v 0.06337519 -0.00655410 0.00633189
v -0.05056257 0.01630171 0.00462614
v -0.04817475 0.00709123 0.00428503
v -0.05465613 0.01152591 0.00428503
v -0.04544565 0.02073639 0.00530838
v -0.03282384 0.00333878 0.00530838
v -0.04237544 0.00299766 0.00530838
v -0.01747293 0.02585347 0.00564949
v 0.02243937 0.02551219 0.00599077
v 0.01391113 0.02721794 0.00633189
v 0.01527576 -0.00348388 0.00769636
v 0.03096779 0.02312438 0.00599077
v 0.03881380 0.02005416 0.00633189
v -0.05840858 0.00675011 0.00462614
v -0.06420790 0.01084368 0.00496726
v -0.06045545 0.01561948 0.00530838
v -0.05226831 0.00231527 0.00530838
v -0.02804804 0.02551219 0.00599077
v -0.00280425 0.00163303 0.00735524
v 0.00504176 0.02824129 0.00667301
v 0.04597742 0.01630171 0.00667301
v 0.05007115 -0.02429283 0.00667301
v 0.05484694 -0.02565746 0.00633189
v -0.06796034 0.00606772 0.00530838
v -0.06216103 0.00163303 0.00564949
v -0.05567964 0.01971304 0.00599077
v -0.03930522 0.02448884 0.00667301
v -0.00348648 0.02892353 0.00701412
v 0.02755645 -0.01064766 0.00871971
v 0.04461295 -0.02190501 0.00769636
v 0.05211785 0.01186703 0.00701412
v 0.05859939 -0.02599857 0.00667301
v 0.06542189 -0.01201213 0.00735524
v -0.07307726 0.00982016 0.00599077
v -0.06932481 0.01459613 0.00633189
v -0.01201473 0.02926464 0.00735524
v -0.01030915 0.00163303 0.00769636
v 0.05689364 0.00743235 0.00735524
v 0.06371631 -0.02122277 0.00735524
v -0.07137167 0.00095080 0.00633189
v -0.07682971 0.00504437 0.00633189
v -0.06454901 0.01868969 0.00701412
v -0.04612789 -0.00109590 0.00735524
v -0.05567964 -0.00177830 0.00735524
v -0.04988033 0.02346549 0.00735524
v -0.03657629 -0.00041367 0.00735524
v -0.02702453 0.00060968 0.00769636
v -0.01815516 0.00129192 0.00769636
v 0.00845309 -0.00177830 0.00906083
v 0.06064609 0.00265655 0.00769636
v -0.06523125 -0.00280165 0.00769636
v -0.02122538 0.02892353 0.00803748
v 0.06269296 -0.02565746 0.00803748
v 0.06405743 -0.00246053 0.00837859
v -0.08092327 0.00879681 0.00735524
v -0.07717083 0.01323150 0.00769636
v -0.05909098 0.02210102 0.00803748
v -0.03214160 0.02790017 0.00837859
v 0.02789757 0.02653571 0.00871971
v 0.01936932 0.02892353 0.00871971
v 0.03574358 0.02380661 0.00871971
v 0.06610429 -0.01815256 0.00871971
v -0.07989992 -0.00007255 0.00735524
v -0.08433460 0.00367990 0.00803748
v -0.07444189 -0.00348388 0.00803748
v -0.07205391 0.01732506 0.00837859
v 0.00128931 -0.00075478 0.01008434
v 0.01049980 0.03028815 0.00906083
v 0.01936932 -0.00689521 0.01042546
v 0.03642582 -0.01781144 0.00974306
v 0.04324848 0.02005416 0.00906083
v 0.05484694 -0.02906879 0.00871971
v 0.05859939 -0.02940990 0.00837859
v 0.06644541 -0.00791856 0.00940194
v -0.04339895 0.02653571 0.00906083
v 0.00163043 0.03131151 0.00940194
v 0.05007115 0.01561948 0.00940194
v 0.05075338 -0.02770416 0.00974306
v 0.06166961 -0.02940990 0.00871971
v -0.06693699 0.02073639 0.00940194
v -0.00689782 0.03165262 0.00974306
v 0.05552918 0.01084368 0.00974306
v -0.08365237 0.01186703 0.00974306
v -0.08740482 0.00743235 0.00974306
v -0.08740482 -0.00143718 0.00940194
v -0.08262902 -0.00416612 0.00940194
v -0.04953922 -0.00416612 0.01042546
v -0.05909098 -0.00518947 0.01042546
v -0.05329166 0.02517107 0.00974306
v -0.03998762 -0.00314277 0.01042546
v -0.03077697 -0.00211941 0.01076657
v -0.01542606 0.03165262 0.01008434
v -0.00587447 -0.00041367 0.01076657
v 0.05962274 0.00606772 0.01008434
v 0.06576317 -0.02429283 0.00974306
v 0.06780987 -0.01405899 0.01042546
v -0.07853546 0.01561948 0.01008434
v -0.06864258 -0.00587186 0.01042546
v -0.02156649 -0.00109590 0.01110769
v -0.01337936 -0.00041367 0.01110769
v 0.01254666 -0.00416612 0.01213104
v 0.04529519 -0.02497522 0.01110769
v 0.06337519 0.00129192 0.01076657
v -0.09115727 0.00197415 0.01042546
v -0.07717083 -0.00655410 0.01076657
v -0.06147880 0.02346549 0.01076657
v -0.02497782 0.03097039 0.01076657
v 0.06473966 -0.02872767 0.00974306
v 0.06644541 -0.05260683 0.00803748
v 0.06610429 -0.05704151 0.00837859
v 0.06951562 -0.05533576 0.00837859
v 0.06303408 -0.05363018 0.00906083
v 0.06951562 -0.05021885 0.00906083
v 0.06610429 -0.04544305 0.00871971
v 0.06337519 -0.04680752 0.00871971
v -0.07341838 0.01903081 0.01076657
v -0.03589405 0.02960576 0.01144881
v 0.05894051 -0.03248012 0.00940194
v 0.06166961 -0.03282124 0.00871971
v 0.06644541 -0.00416612 0.01144881
v 0.06849211 -0.05874709 0.00906083
v 0.06269296 -0.05806486 0.01042546
v 0.06576317 -0.06011172 0.01008434
v 0.07122120 -0.05806486 0.01042546
v 0.07224455 -0.05363018 0.01042546
v 0.02448624 0.02960576 0.01144881
v 0.01595799 0.03131151 0.01178992
v 0.02550959 -0.01167101 0.01383679
v 0.02550959 -0.01167101 0.01383679
v 0.03267337 0.02687682 0.01144881
v 0.03983715 0.02346549 0.01178992
v 0.05552918 -0.03213884 0.01076657
v 0.06405743 -0.03316235 0.00940194
v 0.06166961 -0.03793815 0.00906083
v 0.06405743 -0.03725592 0.00871971
v 0.06064609 -0.04612528 0.00974306
v 0.06610429 -0.03759703 0.00940194
v 0.06849211 -0.04032613 0.01042546
v 0.06746876 -0.02054038 0.01178992
v -0.04715140 0.02755906 0.01213104
v 0.00572400 -0.00246053 0.01349551
v 0.00674735 0.03267597 0.01213104
v 0.04700093 0.01903081 0.01213104
v 0.05859939 -0.03725592 0.01042546
v 0.06030498 -0.05328906 0.01110769
v 0.06917434 -0.06079396 0.01144881
v 0.07122120 -0.04714863 0.01144881
v -0.08945152 -0.00553075 0.01144881
v -0.09422748 -0.00314277 0.01213104
v -0.08399348 -0.00723633 0.01178992
v -0.06830146 0.02175974 0.01178992
v -0.00212202 0.03335821 0.01247216
v 0.05314120 0.01391373 0.01247216
v 0.06644541 -0.03248012 0.01110769
v 0.06815099 -0.00996543 0.01281327
v -0.08876929 0.01016128 0.01213104
v -0.09286285 0.00572660 0.01247216
v -0.08399348 0.01391373 0.01213104
v -0.05636188 0.02585347 0.01281327
v -0.01065026 0.03369949 0.01281327
v 0.03983715 -0.02224612 0.01417791
v 0.03983715 -0.02224612 0.01417791
v 0.05177673 -0.03077437 0.01247216
v 0.05791716 0.00913793 0.01247216
v 0.05825827 -0.04441970 0.01178992
v 0.06712764 -0.02702192 0.01247216
v -0.07887657 0.01732506 0.01247216
v -0.01883740 0.03335821 0.01349551
v -0.00143978 -0.00143718 0.01451902
v -0.00143978 -0.00143718 0.01451902
v 0.06166961 0.00470325 0.01281327
v 0.06303408 -0.06011172 0.01247216
v 0.06303408 -0.06011172 0.01247216
v 0.06610429 -0.06147619 0.01349551
v 0.06610429 -0.06147619 0.01349551
v -0.09661530 0.00026857 0.01315439
v -0.06318455 -0.00723633 0.01417791
v -0.06318455 -0.00723633 0.01417791
v -0.07239502 -0.00825968 0.01383679
v -0.07239502 -0.00825968 0.01383679
v -0.05329166 -0.00621298 0.01417791
v -0.05329166 -0.00621298 0.01417791
v -0.04374007 -0.00518947 0.01417791
v -0.04374007 -0.00518947 0.01417791
v -0.03418831 -0.00382500 0.01451902
v -0.03418831 -0.00382500 0.01451902
v 0.01698134 -0.00655410 0.01486014
v 0.01698134 -0.00655410 0.01486014
v 0.05587029 -0.03623240 0.01247216
v 0.06064609 -0.05738263 0.01315439
v 0.06064609 -0.05738263 0.01315439
v 0.06849211 -0.01610569 0.01383679
v 0.06815099 -0.03282124 0.01315439
v 0.07292679 -0.05601816 0.01247216
v 0.07156232 -0.05908821 0.01349551
v 0.07292679 -0.05192460 0.01349551
v -0.07921769 -0.00860080 0.01383679
v -0.07921769 -0.00860080 0.01383679
v -0.07410061 0.01971304 0.01315439
v -0.06352566 0.02380661 0.01349551
v -0.02531894 -0.00246053 0.01486014
v -0.02531894 -0.00246053 0.01486014
v -0.02838916 0.03199374 0.01417791
v -0.00894468 -0.00109590 0.01486014
v -0.00894468 -0.00109590 0.01486014
v 0.06508078 -0.00041367 0.01383679
v -0.01679069 -0.00143718 0.01520125
v -0.01679069 -0.00143718 0.01520125
v 0.04836540 -0.02906879 0.01486014
v 0.04836540 -0.02906879 0.01486014
v 0.05859939 -0.05090108 0.01383679
v 0.05859939 -0.05090108 0.01383679
v -0.09013392 -0.00791856 0.01383679
v -0.09559195 -0.00621298 0.01417791
v -0.03998762 0.02994704 0.01486014
v 0.02892092 0.02926464 0.01451902
v 0.02073379 0.03165262 0.01486014
v 0.03642582 0.02585347 0.01451902
v 0.06746876 -0.00587186 0.01486014
v 0.06917434 -0.06113507 0.01451902
v 0.07053897 -0.04203172 0.01451902
v -0.08501684 -0.00894191 0.01451902
v -0.08501684 -0.00894191 0.01451902
v -0.06932481 0.02175974 0.01417791
v 0.01186443 0.03301709 0.01486014
v 0.04324848 0.02175974 0.01486014
v 0.05621141 -0.03964374 0.01486014
v 0.05621141 -0.03964374 0.01486014
v 0.06780987 -0.02258724 0.01486014
v -0.09900328 -0.00382500 0.01486014
v -0.08842817 0.01220815 0.01486014
v -0.09320397 0.00811458 0.01486014
v -0.08297014 0.01561948 0.01486014
v -0.05056257 0.02755906 0.01520125
v 0.00265378 0.03404060 0.01520125
v 0.01015868 -0.00382500 0.01656572
v 0.01015868 -0.00382500 0.01656572
v 0.04972987 0.01698395 0.01520125
v -0.09729754 0.00333878 0.01520125
v -0.07785306 0.01834858 0.01520125
v -0.00621558 0.03472284 0.01554237
v 0.05382343 -0.03418570 0.01486014
v 0.05382343 -0.03418570 0.01486014
v 0.05518806 0.01186703 0.01520125
v 0.05962274 0.00709123 0.01520125
v 0.06303408 -0.05977061 0.01588349
v 0.06780987 -0.02838639 0.01554237
v 0.07258567 -0.05567688 0.01554237
v -0.05909098 0.02551219 0.01554237
v -0.01440271 0.03438172 0.01622461
v 0.06303408 0.00265655 0.01554237
v 0.06849211 -0.01167101 0.01622461
v -0.10036775 -0.00075478 0.01622461
v -0.07341838 0.02039528 0.01520125
v 0.06064609 -0.05567688 0.01656572
v -0.06557236 0.02346549 0.01588349
v -0.02224873 0.03369949 0.01690684
v 0.00299490 -0.00211941 0.01793035
v 0.00299490 -0.00211941 0.01793035
v 0.06678652 -0.06011172 0.01690684
v 0.07019785 -0.05874709 0.01690684
v 0.07190344 -0.05021885 0.01656572
v -0.09525083 -0.00825968 0.01656572
v -0.08945152 -0.00962431 0.01690684
v -0.08945152 -0.00962431 0.01690684
v -0.07580636 -0.00962431 0.01724796
v -0.08262902 -0.00962431 0.01690684
v -0.06727811 -0.00860080 0.01793035
v 0.03574358 -0.01917591 0.01758924
v 0.02312177 -0.00928319 0.01827147
v 0.05791716 -0.04544305 0.01690684
v 0.06576317 -0.00246053 0.01656572
v 0.06815099 -0.01781144 0.01724796
v -0.09934439 -0.00621298 0.01690684
v -0.07034816 0.02175974 0.01622461
v -0.05738523 -0.00723633 0.01827147
v -0.04749252 -0.00587186 0.01861259
v -0.03794075 -0.00450723 0.01861259
v -0.03282384 0.03165262 0.01861259
v 0.04529519 -0.02668081 0.01758924
v -0.02907139 -0.00348388 0.01895370
v -0.00451000 -0.00143718 0.01895370
v 0.03267337 0.02790017 0.01724796
v 0.02516847 0.03062927 0.01758924
v 0.03915492 0.02414773 0.01724796
v 0.06815099 -0.03213884 0.01793035
v -0.10139110 -0.00348388 0.01758924
v -0.09183950 0.01016128 0.01793035
v -0.09661530 0.00572660 0.01793035
v -0.08638147 0.01391373 0.01793035
v -0.08058216 0.01698395 0.01758924
v -0.04442230 0.02892353 0.01793035
v -0.02054314 -0.00211941 0.01929482
v -0.01235601 -0.00143718 0.01929482
v 0.01664022 0.03267597 0.01793035
v 0.00742974 0.03404060 0.01827147
v 0.01527576 -0.00518947 0.01929482
v 0.04529519 0.01937193 0.01758924
v 0.05177673 -0.03179772 0.01793035
v 0.05552918 -0.03657368 0.01758924
v 0.06746876 -0.00791856 0.01793035
v 0.06746876 -0.02429283 0.01793035
v -0.10002663 0.00163303 0.01793035
v -0.07512412 0.01971304 0.01724796
v -0.05431502 0.02653571 0.01793035
v -0.00178090 0.03472284 0.01861259
v 0.05177673 0.01391373 0.01793035
v 0.05689364 0.00913793 0.01793035
v 0.06064609 0.00470325 0.01793035
v -0.06216103 0.02448884 0.01793035
v -0.00996803 0.03472284 0.01895370
v 0.06371631 0.00060968 0.01827147
v 0.07053897 -0.05465353 0.01827147
v -0.06796034 0.02244214 0.01827147
v 0.06405743 -0.05772374 0.01827147
v -0.10173238 -0.00109590 0.01895370
v -0.07239502 0.02073639 0.01827147
v -0.01713181 0.03438172 0.01929482
v 0.06780987 -0.01337676 0.01929482
v -0.09832105 -0.00791856 0.01929482
v -0.09832105 -0.00791856 0.01929482
v -0.09354509 -0.00928319 0.01929482
v -0.09354509 -0.00928319 0.01929482
v 0.00811198 -0.00246053 0.02100040
v 0.06132833 -0.05090108 0.01895370
v 0.06576317 -0.00416612 0.01963594
v 0.06883322 -0.04305507 0.01895370
v -0.10104999 -0.00553075 0.01929482
v -0.10104999 -0.00553075 0.01929482
v -0.08672259 -0.00996543 0.01963594
v -0.07921769 -0.00996543 0.02031817
v -0.02429559 0.03335821 0.01997705
v 0.05723476 -0.03759703 0.01963594
v 0.06780987 -0.05704151 0.01895370
v -0.07103056 -0.00894191 0.02134152
v -0.07717083 0.01868969 0.01929482
v 0.03540247 0.02585347 0.01963594
v 0.02892092 0.02892353 0.01997705
v 0.04120162 0.02175974 0.01997705
v 0.06712764 -0.01951703 0.02031817
v -0.10207350 -0.00314277 0.01997705
v -0.08297014 0.01561948 0.02031817
v 0.02141602 0.03131151 0.02065929
v 0.04324848 -0.02361059 0.02065929
v 0.03335560 -0.01508234 0.02134152
v 0.05007115 -0.02906879 0.02065929
v 0.04734205 0.01664283 0.02031817
v 0.05450583 -0.03282124 0.02031817
v -0.09866217 0.00367990 0.02031817
v -0.10104999 0.00060968 0.01997705
v -0.09422748 0.00777346 0.02065929
v -0.08876929 0.01186703 0.02065929
v -0.06181992 -0.00757745 0.02202392
v -0.05772635 0.02517107 0.02065929
v -0.06489013 0.02312438 0.02065929
v -0.04851587 0.02755906 0.02065929
v -0.03896411 0.02994704 0.02065929
v 0.00026596 -0.00109590 0.02236503
v 0.01220554 0.03301709 0.02100040
v 0.05348231 0.01152591 0.02031817
v 0.05791716 0.00675011 0.02031817
v 0.06132833 0.00231527 0.02065929
v 0.06610429 -0.02565746 0.02065929
v 0.06644541 -0.00928319 0.02100040
v -0.07375949 0.02005416 0.02065929
v -0.05192720 -0.00621298 0.02270615
v 0.00299490 0.03404060 0.02134152
v 0.02209826 -0.00689521 0.02236503
v 0.06371631 -0.00143718 0.02065929
v 0.06473966 -0.05328906 0.01997705
v 0.06780987 -0.05055997 0.01997705
v -0.04237544 -0.00484835 0.02304727
v -0.03316496 -0.00348388 0.02304727
v -0.03043586 0.03199374 0.02134152
v -0.00587447 0.03438172 0.02168280
v -0.10173238 -0.00109590 0.02100040
v -0.02463671 -0.00177830 0.02338839
v -0.01372048 0.03438172 0.02168280
v -0.00792117 -0.00041367 0.02304727
v 0.06064609 -0.03998485 0.02100040
v 0.06473966 -0.03111549 0.02168280
v -0.09968551 -0.00655410 0.02134152
v -0.10139110 -0.00450723 0.02100040
v -0.09593306 -0.00825968 0.02168280
v -0.09013392 -0.00894191 0.02236503
v -0.07921769 0.01732506 0.02202392
v -0.01610846 -0.00075478 0.02338839
v -0.02054314 0.03369949 0.02168280
v 0.01391113 -0.00314277 0.02372950
v 0.06644541 -0.01474123 0.02202392
v -0.08262902 -0.00928319 0.02304727
v 0.03199114 0.02687682 0.02236503
v 0.03744917 0.02380661 0.02236503
v 0.05757588 -0.03316235 0.02202392
v 0.06473966 -0.00518947 0.02202392
v -0.10173238 -0.00314277 0.02168280
v -0.10002663 0.00129192 0.02202392
v 0.02516847 0.02960576 0.02304727
v 0.04324848 0.01937193 0.02270615
v 0.06337519 -0.03930262 0.02134152
v -0.09627418 0.00504437 0.02270615
v -0.08501684 0.01391373 0.02270615
v -0.07478300 -0.00860080 0.02407062
v 0.04972987 0.01425501 0.02304727
v 0.05518806 0.00913793 0.02304727
v 0.05382343 -0.02940990 0.02270615
v 0.05928163 0.00436213 0.02270615
v 0.06508078 -0.02088166 0.02270615
v -0.09081615 0.00947905 0.02304727
v -0.06796034 0.02141863 0.02304727
v -0.07478300 0.01834858 0.02372950
v -0.06079656 0.02380661 0.02304727
v -0.05192720 0.02585347 0.02338839
v -0.04237544 0.02824129 0.02338839
v -0.03350607 0.03062927 0.02338839
v 0.01698134 0.03165262 0.02372950
v 0.04870652 -0.02531634 0.02338839
v 0.04154273 -0.01951703 0.02407062
v 0.06235184 -0.00041367 0.02270615
v -0.10036775 -0.00075478 0.02304727
v -0.10036775 -0.00450723 0.02270615
v 0.00606511 -0.00041367 0.02543525
v 0.00742974 0.03301709 0.02407062
v 0.05996386 -0.03145661 0.02270615
v 0.06508078 -0.00962431 0.02372950
v -0.09763881 -0.00621298 0.02338839
v -0.06625459 -0.00757745 0.02509397
v -0.02395447 0.03267597 0.02372950
v -0.00178090 0.03369949 0.02441174
v 0.03165002 -0.01064766 0.02509397
v 0.06269296 -0.02463394 0.02372950
v -0.09252173 -0.00723633 0.02441174
v -0.01781405 0.03335821 0.02441174
v -0.01030915 0.03369949 0.02441174
v -0.09729754 0.00231527 0.02441174
v -0.08058216 0.01561948 0.02441174
v -0.05704411 -0.00587186 0.02611748
v 0.05723476 -0.02770416 0.02407062
v 0.06269296 -0.00416612 0.02441174
v 0.06405743 -0.01542346 0.02441174
v -0.08569907 -0.00757745 0.02543525
v -0.00246313 0.00095080 0.02645860
v 0.02107491 -0.00416612 0.02645860
v 0.03403784 0.02448884 0.02475285
v 0.02823869 0.02721794 0.02509397
v 0.03949603 0.02107751 0.02509397
v -0.09832105 -0.00177830 0.02475285
v -0.09252173 0.00675011 0.02509397
v -0.08672259 0.01118480 0.02509397
v -0.04749252 -0.00416612 0.02679972
v 0.04563630 0.01664283 0.02543525
v 0.05314120 -0.02463394 0.02543525
v 0.05962274 0.00129192 0.02509397
v 0.05621141 0.00640900 0.02509397
v 0.05996386 -0.02190501 0.02543525
v -0.07785306 -0.00723633 0.02645860
v -0.06352566 0.02141863 0.02543525
v -0.07000704 0.01903081 0.02577637
v -0.05533853 0.02380661 0.02577637
v -0.03794075 -0.00246053 0.02714084
v -0.02907139 -0.00075478 0.02714084
v -0.01133250 0.00129192 0.02714084
v 0.02107491 0.02960576 0.02577637
v 0.05143561 0.01152591 0.02543525
v -0.09422748 -0.00314277 0.02611748
v -0.04578677 0.02619459 0.02611748
v -0.03623517 0.02858241 0.02611748
v -0.02258984 0.03131151 0.02645860
v -0.02020203 0.00060968 0.02714084
v 0.04768317 -0.02088166 0.02611748
v -0.07648859 0.01630171 0.02611748
v 0.01254666 -0.00041367 0.02782307
v 0.01186443 0.03131151 0.02645860
v 0.06166961 -0.01508234 0.02611748
v 0.06235184 -0.00928319 0.02577637
v -0.07000704 -0.00655410 0.02748195
v 0.00231267 0.03233486 0.02714084
v 0.04017827 -0.01405899 0.02714084
v 0.05655253 -0.02054038 0.02679972
v -0.09388637 0.00265655 0.02645860
v -0.08740482 -0.00416612 0.02748195
v -0.08194663 0.01323150 0.02679972
v -0.01474383 0.03233486 0.02714084
v -0.00655670 0.03267597 0.02714084
v 0.05962274 -0.00280165 0.02679972
v 0.03062667 0.02482996 0.02714084
v 0.03574358 0.02210102 0.02714084
v -0.08808705 0.00811458 0.02714084
v -0.06181992 -0.00518947 0.02850530
v 0.02414512 0.02721794 0.02782307
v 0.03028539 -0.00621298 0.02850530
v 0.04120162 0.01834858 0.02748195
v 0.05621141 0.00299766 0.02714084
v 0.05211785 0.00811458 0.02748195
v -0.07955881 -0.00450723 0.02850530
v -0.06420790 0.01732506 0.03021105
v 0.00367730 0.00231527 0.02918754
v 0.04700093 0.01323150 0.02748195
v 0.05211785 -0.01917591 0.02748195
v 0.05791716 -0.01440011 0.02782307
v -0.04919810 0.02141863 0.03123440
v -0.05704411 0.01937193 0.03089328
v 0.01595799 0.02926464 0.02850530
v 0.05894051 -0.00825968 0.02782307
v -0.08842817 0.00265655 0.02850530
v -0.07580636 0.01289038 0.02986993
v -0.05295055 -0.00314277 0.02952882
v -0.02463671 0.02721794 0.03157552
v -0.03487054 0.02517107 0.03157552
v 0.04665981 -0.01576458 0.02816418
v -0.07205391 -0.00416612 0.02952882
v -0.00587447 0.00367990 0.03021105
v 0.00640623 0.03062927 0.02918754
v 0.01936932 -0.00041367 0.02986993
v -0.08194663 0.00982016 0.02918754
v -0.04374007 -0.00109590 0.03021105
v 0.05382343 -0.01337676 0.02884642
v 0.05587029 -0.00143718 0.02850530
v -0.03384719 0.00095080 0.03055217
v -0.02429559 0.00265655 0.03055217
v -0.01508495 0.00367990 0.03055217
v -0.01030915 0.03097039 0.02986993
v -0.00246313 0.03131151 0.02952882
v 0.03199114 0.02210102 0.02918754
v 0.02653294 0.02448884 0.02952882
v 0.03676694 0.01903081 0.02918754
v 0.03881380 -0.00825968 0.02952882
v 0.05211785 0.00436213 0.02918754
v -0.08058216 -0.00007255 0.02986993
v -0.06523125 -0.00382500 0.02986993
v 0.04222497 0.01493724 0.02952882
v 0.04768317 0.00982016 0.02952882
v 0.05007115 -0.01337676 0.02918754
v 0.01015868 0.00333878 0.03123440
v 0.01936932 0.02653571 0.03021105
v 0.05518806 -0.00723633 0.02918754
v 0.04563630 -0.01064766 0.02952882
v -0.07989992 0.00675011 0.03055217
v -0.07273614 -0.00075478 0.03089328
v -0.05806747 -0.00177830 0.03123440
v 0.01015868 0.02824129 0.03089328
v 0.02789757 -0.00041367 0.03123440
v 0.05177673 -0.00041367 0.02986993
v 0.05109450 -0.00655410 0.02986993
v -0.07478300 0.01084368 0.03123440
v 0.00060708 0.00572660 0.03225775
v 0.00128931 0.02926464 0.03123440
v 0.03301449 0.01937193 0.03055217
v 0.02823869 0.02141863 0.03089328
v 0.03710805 0.01561948 0.03089328
v 0.04700093 -0.00246053 0.03055217
v 0.04768317 0.00538548 0.03055217
v -0.06489013 -0.00075478 0.03157552
v -0.04919810 0.00060968 0.03225775
v -0.00621558 0.02926464 0.03157552
v 0.02175714 0.02346549 0.03157552
v 0.03506135 0.00060968 0.03157552
v 0.04256625 0.01084368 0.03089328
v -0.07205391 0.00367990 0.03191663
v -0.06591348 0.01527836 0.03157552
v -0.01235601 0.02858241 0.03191663
v 0.01698134 0.00470325 0.03259887
v -0.03930522 0.00299766 0.03259887
v -0.00928580 0.00675011 0.03259887
v 0.01357001 0.02517107 0.03225775
v -0.02941251 0.00504437 0.03293999
v -0.01951963 0.00640900 0.03293999
v 0.03130890 0.01698395 0.03191663
v 0.04256625 0.00572660 0.03157552
v -0.06420790 0.00333878 0.03259887
v -0.05602076 0.01766618 0.03225775
v 0.00470065 0.02653571 0.03259887
v 0.02482736 0.01903081 0.03259887
v 0.03642582 0.01186703 0.03191663
v -0.06250215 0.01391373 0.03293999
v -0.05602076 0.00231527 0.03293999
v -0.03623517 0.02278326 0.03293999
v -0.04681012 0.01971304 0.03259887
v -0.00314537 0.02721794 0.03293999
v 0.00708846 0.00777346 0.03362238
v 0.02414512 0.00606772 0.03293999
v -0.02566006 0.02517107 0.03293999
v 0.01698134 0.02107751 0.03328126
v 0.03199114 0.00811458 0.03259887
v -0.01406160 0.02551219 0.03362238
v 0.02857981 0.01357261 0.03293999
v -0.05295055 0.01630171 0.03328126
v -0.04612789 0.00504437 0.03362238
v -0.00314537 0.00982016 0.03396350
v 0.00811198 0.02278326 0.03362238
v -0.05465613 0.00743235 0.03362238
v -0.03487054 0.02039528 0.03396350
v -0.04408118 0.01800730 0.03362238
v -0.03521166 0.00777346 0.03396350
v -0.01372048 0.01050256 0.03430461
v -0.00007515 0.02414773 0.03396350
v 0.01391113 0.00982016 0.03396350
v 0.02039268 0.01561948 0.03362238
v 0.02141602 0.01186703 0.03362238
v -0.02634229 0.02278326 0.03396350
v -0.02429559 0.00947905 0.03430461
v -0.00621558 0.02517107 0.03396350
v 0.01118219 0.01800730 0.03430461
v -0.03180049 0.01596059 0.03464573
v -0.01133250 0.02107751 0.03464573
v 0.00367730 0.01254926 0.03464573
v 0.00265378 0.01971304 0.03464573
v 0.01220554 0.01459613 0.03430461
v -0.00723893 0.01425501 0.03498685
v -0.01747293 0.01459613 0.03464573
v 0.00299490 0.01630171 0.03464573
vt 0.66840398 0.13553900
vt 0.69093299 0.15512002
vt 0.67109901 0.16050398
vt 0.64284497 0.14399999
vt 0.69315702 0.13339400
vt 0.63523501 0.12107098
vt 0.65985101 0.11362898
vt 0.69377500 0.17459798
vt 0.65109003 0.17092001
vt 0.67664999 0.18216199
vt 0.71861702 0.15874803
vt 0.71482903 0.17581201
vt 0.60949302 0.12879902
vt 0.59771699 0.10788500
vt 0.62359500 0.09990102
vt 0.62017697 0.15589398
vt 0.72464800 0.13868302
vt 0.69011801 0.11155999
vt 0.74117398 0.18097502
vt 0.75105399 0.16675502
vt 0.70906001 0.19264901
vt 0.69228601 0.19158101
vt 0.73275697 0.19733703
vt 0.56983501 0.11770397
vt 0.58509803 0.14204800
vt 0.64999700 0.09177500
vt 0.76822501 0.18840098
vt 0.75780499 0.20211899
vt 0.55713898 0.09748900
vt 0.54614401 0.13225102
vt 0.53260398 0.10992503
vt 0.58526403 0.08728397
vt 0.59774202 0.16734701
vt 0.56267798 0.15760601
vt 0.63051897 0.18118602
vt 0.65934497 0.19260097
vt 0.68220598 0.20182097
vt 0.76143998 0.15087098
vt 0.78053701 0.17716599
vt 0.50958300 0.12549001
vt 0.52711898 0.14988500
vt 0.61034900 0.07870197
vt 0.73042101 0.12145400
vt 0.70199698 0.20811301
vt 0.72340602 0.21183503
vt 0.49328101 0.10471600
vt 0.47237501 0.12123901
vt 0.49220100 0.14513803
vt 0.51776201 0.08981502
vt 0.54487199 0.07894701
vt 0.68709600 0.09032100
vt 0.74636000 0.21652699
vt 0.79366702 0.19888002
vt 0.78115100 0.20947301
vt 0.45737499 0.10103399
vt 0.47969800 0.08497798
vt 0.57786697 0.18210697
vt 0.54444999 0.17354101
vt 0.61084199 0.19227201
vt 0.64026397 0.20231700
vt 0.43805799 0.11934698
vt 0.42144200 0.09904897
vt 0.44197199 0.08117199
vt 0.45696101 0.14231098
vt 0.50531900 0.07147902
vt 0.51011997 0.16801703
vt 0.57230002 0.06788599
vt 0.66813600 0.21184498
vt 0.79651302 0.16729200
vt 0.77416199 0.13903403
vt 0.80943698 0.19056797
vt 0.76972097 0.22261000
vt 0.39906701 0.12032497
vt 0.37916699 0.10153198
vt 0.40096501 0.08093101
vt 0.42133701 0.14182800
vt 0.47561899 0.16331202
vt 0.64219099 0.06982601
vt 0.69174498 0.21865201
vt 0.35594001 0.12302601
vt 0.33461100 0.10575598
vt 0.35558501 0.08211499
vt 0.37997800 0.14267004
vt 0.44178799 0.16183102
vt 0.46592301 0.06501001
vt 0.74025798 0.10434103
vt 0.71258402 0.22459298
vt 0.73518801 0.22923398
vt 0.30750000 0.12806898
vt 0.28784400 0.11189002
vt 0.30952400 0.08669800
vt 0.33307800 0.14587402
vt 0.42628500 0.06246901
vt 0.38196400 0.06230003
vt 0.53272903 0.05886900
vt 0.80097598 0.21748900
vt 0.81715798 0.21181500
vt 0.79256999 0.23004198
vt 0.75796598 0.23470199
vt 0.26170900 0.13632703
vt 0.26296899 0.09438598
vt 0.23906501 0.12066799
vt 0.28676099 0.15110898
vt 0.33345100 0.06410301
vt 0.28614700 0.07029301
vt 0.40491199 0.16129601
vt 0.56006300 0.19479501
vt 0.52715802 0.18904102
vt 0.60107899 0.05722898
vt 0.59256601 0.20275301
vt 0.62270403 0.21168101
vt 0.21624200 0.10607302
vt 0.19751100 0.13159299
vt 0.21972300 0.14547801
vt 0.23806500 0.07888299
vt 0.36094400 0.16226500
vt 0.49304199 0.05138499
vt 0.49288899 0.18382001
vt 0.65119803 0.22027498
vt 0.81473601 0.16186398
vt 0.82655603 0.18746501
vt 0.17363600 0.11948401
vt 0.19107200 0.09130400
vt 0.24383400 0.15713900
vt 0.31407201 0.16477698
vt 0.45934600 0.18062800
vt 0.68762797 0.06787801
vt 0.79519397 0.13296402
vt 0.67786700 0.22758603
vt 0.83165503 0.20804203
vt 0.77987498 0.24157202
vt 0.15977199 0.14402300
vt 0.18274599 0.15557003
vt 0.42541301 0.17897797
vt 0.45153099 0.04699701
vt 0.70075798 0.23368502
vt 0.81487399 0.23469502
vt 0.14864200 0.10704798
vt 0.13513400 0.13479698
vt 0.20731500 0.16505504
vt 0.26311800 0.05458999
vt 0.21530700 0.06493300
vt 0.27046901 0.16921496
vt 0.31179401 0.04821002
vt 0.36158499 0.04529101
vt 0.40876901 0.04542601
vt 0.56084400 0.04719901
vt 0.72231102 0.23860699
vt 0.16786399 0.07820898
vt 0.38832399 0.17879403
vt 0.83298200 0.23215997
vt 0.74415600 0.24494600
vt 0.12773700 0.15831900
vt 0.15043300 0.16625899
vt 0.23260500 0.17360902
vt 0.34409100 0.17852598
vt 0.57493001 0.21394300
vt 0.54279101 0.20771199
vt 0.60445398 0.22095901
vt 0.80379897 0.24795699
vt 0.11044200 0.12500703
vt 0.10292900 0.15056300
vt 0.12434300 0.09758300
vt 0.17646800 0.17314899
vt 0.51989400 0.03868401
vt 0.50961900 0.20246798
vt 0.63406801 0.04778898
vt 0.75607097 0.09322798
vt 0.63370699 0.22872299
vt 0.84512001 0.18787998
vt 0.84831703 0.21018100
vt 0.76560199 0.25177801
vt 0.29820600 0.18077099
vt 0.47596201 0.19876701
vt 0.66191399 0.23610300
vt 0.83662403 0.16277498
vt 0.84895599 0.22874796
vt 0.20059200 0.18049198
vt 0.44332901 0.19582498
vt 0.68703198 0.24220097
vt 0.12401600 0.17831099
vt 0.10095500 0.17309701
vt 0.07736500 0.14445502
vt 0.08683900 0.11928201
vt 0.24098600 0.04007697
vt 0.19133900 0.05184901
vt 0.25805700 0.18401200
vt 0.29130101 0.03298002
vt 0.34036300 0.02871102
vt 0.41021699 0.19420201
vt 0.47867900 0.03219801
vt 0.70895600 0.24713004
vt 0.82792002 0.25162303
vt 0.78862101 0.25839001
vt 0.14944001 0.18164396
vt 0.14332999 0.07005000
vt 0.39025900 0.02741098
vt 0.43563601 0.02887303
vt 0.58931899 0.03533399
vt 0.81716198 0.12929398
vt 0.72999501 0.25349402
vt 0.07390400 0.16835600
vt 0.10149900 0.09166902
vt 0.22452600 0.18809599
vt 0.37252501 0.19433498
vt 0.84592497 0.24831903
vt 0.94752300 0.26632798
vt 0.96660501 0.27120000
vt 0.95573699 0.28097796
vt 0.95602000 0.25364602
vt 0.93455303 0.27726901
vt 0.91653901 0.26026404
vt 0.92465198 0.24874103
vt 0.17373800 0.18662101
vt 0.32892701 0.19515699
vt 0.86295301 0.21388000
vt 0.86362499 0.23055696
vt 0.75193101 0.25957000
vt 0.97009701 0.28384101
vt 0.97788501 0.25885499
vt 0.98102802 0.27721101
vt 0.96409398 0.29442096
vt 0.94616699 0.29152298
vt 0.55747497 0.22483802
vt 0.52619803 0.21995497
vt 0.64337999 0.49881697
vt 0.68839300 0.04198402
vt 0.58787203 0.23090398
vt 0.61533099 0.23767400
vt 0.86278701 0.19250101
vt 0.86442697 0.24556500
vt 0.88634700 0.23399001
vt 0.88215202 0.24595797
vt 0.92424202 0.23528898
vt 0.88268298 0.25741398
vt 0.89294499 0.27184498
vt 0.81304598 0.26513600
vt 0.28346801 0.19626999
vt 0.54883999 0.02595299
vt 0.49214801 0.21579200
vt 0.64433700 0.24451101
vt 0.88547099 0.21618301
vt 0.95888799 0.23961496
vt 0.97839701 0.29667401
vt 0.91960502 0.28766900
vt 0.05579800 0.14059901
vt 0.04789700 0.16637200
vt 0.06887400 0.11351502
vt 0.19648799 0.19227499
vt 0.45911601 0.21249998
vt 0.67192298 0.25082004
vt 0.86050498 0.26298499
vt 0.77322698 0.26768804
vt 0.10209600 0.18963003
vt 0.07754400 0.18810898
vt 0.12647000 0.19127202
vt 0.24627300 0.19850397
vt 0.42691901 0.21058798
vt 0.74834800 0.47493500
vt 0.79724002 0.09247798
vt 0.85786200 0.16714299
vt 0.69544899 0.25489801
vt 0.91985798 0.21947300
vt 0.83799797 0.26979804
vt 0.15084399 0.19393396
vt 0.39554000 0.21052802
vt 0.45466301 0.50091100
vt 0.50841600 0.01727700
vt 0.71554297 0.25958598
vt 0.98227602 0.36289096
vt 0.99166602 0.26439297
vt 0.98551601 0.34216899
vt 0.99444199 0.28985000
vt 0.05024800 0.18611097
vt 0.12822101 0.43219697
vt 0.16351900 0.04195499
vt 0.08362800 0.40821999
vt 0.11574800 0.06419802
vt 0.17789200 0.45342696
vt 0.21639501 0.02666998
vt 0.22707400 0.46901000
vt 0.26821101 0.01746202
vt 0.27761799 0.47936702
vt 0.32059100 0.01186597
vt 0.58239198 0.50097197
vt 0.62069899 0.02586299
vt 0.88393903 0.19783401
vt 0.96601999 0.37693900
vt 0.98173898 0.24308598
vt 0.79549700 0.27462399
vt 0.86041999 0.27891701
vt 0.95387203 0.30175799
vt 0.96732903 0.30820799
vt 0.93706900 0.30166000
vt 0.05378200 0.38610804
vt 0.08148300 0.08676201
vt 0.17190300 0.19738197
vt 0.21671800 0.20036799
vt 0.32552901 0.48599201
vt 0.36966401 0.01001900
vt 0.35818100 0.21026897
vt 0.41515300 0.49576104
vt 0.46168301 0.01291800
vt 0.73663002 0.26694202
vt 0.37228099 0.49020100
vt 0.41703299 0.00976598
vt 0.81075603 0.44351304
vt 0.85213500 0.14129502
vt 0.93175399 0.38917303
vt 0.95237499 0.22220099
vt 0.04108400 0.13683903
vt 0.03131000 0.16514003
vt 0.31211400 0.21056998
vt 0.57045603 0.24108899
vt 0.54031700 0.23698902
vt 0.59917301 0.24630702
vt 0.75730997 0.27405703
vt 0.98054999 0.31686801
vt 0.89601099 0.29662400
vt 0.03314000 0.36295497
vt 0.05281700 0.11047900
vt 0.19228800 0.20242500
vt 0.50845098 0.23125803
vt 0.62655401 0.25269496
vt 0.87643802 0.40270299
vt 0.90336800 0.19615197
vt 0.81937099 0.28232300
vt 0.02907500 0.18690300
vt 0.10711000 0.20292002
vt 0.08180800 0.20187902
vt 0.13279100 0.20359898
vt 0.26956201 0.20998299
vt 0.47472501 0.22763401
vt 0.53487003 0.49544501
vt 0.57552201 0.01457399
vt 0.65432203 0.25885499
vt 0.05591000 0.20157498
vt 0.15576001 0.20567900
vt 0.44190499 0.22519803
vt 0.84967101 0.41640103
vt 0.88071799 0.17810702
vt 0.68036300 0.26339799
vt 0.70318002 0.26715803
vt 0.96953601 0.35633397
vt 0.84088600 0.28923404
vt 0.95047802 0.31285596
vt 0.23497801 0.21010697
vt 0.41111699 0.22467303
vt 0.72266698 0.27157301
vt 0.77775300 0.28280103
vt 0.03362200 0.20401096
vt 0.17507400 0.20627600
vt 0.95033002 0.36876404
vt 0.20817401 0.21044302
vt 0.38111800 0.22486603
vt 0.48402700 0.48828101
vt 0.53683698 0.00501299
vt 0.97016197 0.33744401
vt 0.96329701 0.32364297
vt 0.92741698 0.31259298
vt 0.01960300 0.15901601
vt 0.02390600 0.33700401
vt 0.02775700 0.12863302
vt 0.07720000 0.38458800
vt 0.04896700 0.36302698
vt 0.11633400 0.40670896
vt 0.71487498 0.46803200
vt 0.62028599 0.48211700
vt 0.90143698 0.38466901
vt 0.74269402 0.27876997
vt 0.79938000 0.29162699
vt 0.01624300 0.18414301
vt 0.18813300 0.21111900
vt 0.16390900 0.42840499
vt 0.21338101 0.44467998
vt 0.26194000 0.45750403
vt 0.33932099 0.22928602
vt 0.78374201 0.44412303
vt 0.30812901 0.46494102
vt 0.44088900 0.47993499
vt 0.58266699 0.25483096
vt 0.55461103 0.25129801
vt 0.60865098 0.25953299
vt 0.85288602 0.30659300
vt 0.01949100 0.20524597
vt 0.09046800 0.21566600
vt 0.06382500 0.21523702
vt 0.11702400 0.21614099
vt 0.14321300 0.21531200
vt 0.29338899 0.22354001
vt 0.35379800 0.46983200
vt 0.39806801 0.47459000
vt 0.52350998 0.24740803
vt 0.49014601 0.24368399
vt 0.56589901 0.48212600
vt 0.63548303 0.26604497
vt 0.82699001 0.41599798
vt 0.85758102 0.39662200
vt 0.76239502 0.28755999
vt 0.82270998 0.30044901
vt 0.04129300 0.21478200
vt 0.16745000 0.21464503
vt 0.25359699 0.22146297
vt 0.45657000 0.24066997
vt 0.66506100 0.27250898
vt 0.68980199 0.27630198
vt 0.71040797 0.27958298
vt 0.22173800 0.21989000
vt 0.42631999 0.23862100
vt 0.72851300 0.28347802
vt 0.94402301 0.32507396
vt 0.19747899 0.22027898
vt 0.95690298 0.35122800
vt 0.02637600 0.21952200
vt 0.17873900 0.21943998
vt 0.39951199 0.23727703
vt 0.78091800 0.29739797
vt 0.00498900 0.17466998
vt 0.00538700 0.27780700
vt 0.00992200 0.14733601
vt 0.01688300 0.30912799
vt 0.51726502 0.47546697
vt 0.92530698 0.36412096
vt 0.74623102 0.29190701
vt 0.89499801 0.32173598
vt 0.00489500 0.25333899
vt 0.00789400 0.19902503
vt 0.04149000 0.33858502
vt 0.07124400 0.36305404
vt 0.37198499 0.23793101
vt 0.86178303 0.38234496
vt 0.95333201 0.33634400
vt 0.10743900 0.38401198
vt 0.15803400 0.22290802
vt 0.59292102 0.26698101
vt 0.56761998 0.26387900
vt 0.61749798 0.27307099
vt 0.80173200 0.30861497
vt 0.01563100 0.22708499
vt 0.13183901 0.22644299
vt 0.53955400 0.26194596
vt 0.75926602 0.43915099
vt 0.68564898 0.45632499
vt 0.80518001 0.41535497
vt 0.64539999 0.27953500
vt 0.83404303 0.39568299
vt 0.05133400 0.22604501
vt 0.03452100 0.22506702
vt 0.07644300 0.22736299
vt 0.10414200 0.22757900
vt 0.15000100 0.40412903
vt 0.23854700 0.23290002
vt 0.20923200 0.23120797
vt 0.27579600 0.23504800
vt 0.31406501 0.23724300
vt 0.46910101 0.46719599
vt 0.50612301 0.25825900
vt 0.67383802 0.28391004
vt 0.69713598 0.28760898
vt 0.71709102 0.29204601
vt 0.82338899 0.31888604
vt 0.76339501 0.30167300
vt 0.17225400 0.22927201
vt 0.19763701 0.42051697
vt 0.47267699 0.25506496
vt 0.60485899 0.46456599
vt 0.73326200 0.29453003
vt 0.93557501 0.34871101
vt 0.92459500 0.33492899
vt 0.24454901 0.43320298
vt 0.29057699 0.44345301
vt 0.34759101 0.24230802
vt 0.44015601 0.25253999
vt 0.02672800 0.23164797
vt 0.33500800 0.44867802
vt 0.41119301 0.24919498
vt 0.42348599 0.45990300
vt 0.87428898 0.36340702
vt 0.84153599 0.33490700
vt 0.01336800 0.26497996
vt 0.01421400 0.24660701
vt 0.01973900 0.28900301
vt 0.03824600 0.31534004
vt 0.14793099 0.23405600
vt 0.37973300 0.45415604
vt 0.38558501 0.24677002
vt 0.55093700 0.46225500
vt 0.78161502 0.31180000
vt 0.06608000 0.34219700
vt 0.57902002 0.27635503
vt 0.60104698 0.28028399
vt 0.83927703 0.37651199
vt 0.74612200 0.30291796
vt 0.02020400 0.24086797
vt 0.04026800 0.23501301
vt 0.55274802 0.27464300
vt 0.62656897 0.28642499
vt 0.87335098 0.34917402
vt 0.06281300 0.23704302
vt 0.12108100 0.23640299
vt 0.09891700 0.36348200
vt 0.65581900 0.29240704
vt 0.68262899 0.29645801
vt 0.81400198 0.39337599
vt 0.70547301 0.29862702
vt 0.80167300 0.32532299
vt 0.09172100 0.23819798
vt 0.19501100 0.24100798
vt 0.16525701 0.24285001
vt 0.22478200 0.24270999
vt 0.26035899 0.24692398
vt 0.29883099 0.24937099
vt 0.33433300 0.25126302
vt 0.52246398 0.27281904
vt 0.78134000 0.41260201
vt 0.73274601 0.43047702
vt 0.72607201 0.30199099
vt 0.03342400 0.24287903
vt 0.02110400 0.25468004
vt 0.50197399 0.45406300
vt 0.48774099 0.26950896
vt 0.83506602 0.36245501
vt 0.76000202 0.31395996
vt 0.02475000 0.27337199
vt 0.13674200 0.38224399
vt 0.37157601 0.25507700
vt 0.45406100 0.26665604
vt 0.65949899 0.44168901
vt 0.81103098 0.34265804
vt 0.03932300 0.29742897
vt 0.39462101 0.26013100
vt 0.42265600 0.26313901
vt 0.05255800 0.24707800
vt 0.13966700 0.24443001
vt 0.18000500 0.39722401
vt 0.81285501 0.37348700
vt 0.73722798 0.31281197
vt 0.77809799 0.32692301
vt 0.06346000 0.32207096
vt 0.45366099 0.44619799
vt 0.58963901 0.44603598
vt 0.58785802 0.28915000
vt 0.56481200 0.28659797
vt 0.61065900 0.29434001
vt 0.03786900 0.25698000
vt 0.07964500 0.24835896
vt 0.10930900 0.24789900
vt 0.22564299 0.40972799
vt 0.63764203 0.29985100
vt 0.78870600 0.38916898
vt 0.71351802 0.31113696
vt 0.69109601 0.30702901
vt 0.79368401 0.35426599
vt 0.09441700 0.34482801
vt 0.21083701 0.25389701
vt 0.18339799 0.25370002
vt 0.24459501 0.25771403
vt 0.27196199 0.41976899
vt 0.31598800 0.42747700
vt 0.40654501 0.43865502
vt 0.53746200 0.28495896
vt 0.66550398 0.30424798
vt 0.04763700 0.27737099
vt 0.28307000 0.26173800
vt 0.32160100 0.26443499
vt 0.37492001 0.26955998
vt 0.36086899 0.43353701
vt 0.75696802 0.40652901
vt 0.15519001 0.25359797
vt 0.53674603 0.44215703
vt 0.50341499 0.28323698
vt 0.77078098 0.33877504
vt 0.75223398 0.32619601
vt 0.12753300 0.36321902
vt 0.46822900 0.28152299
vt 0.70412499 0.41869998
vt 0.77936500 0.36835098
vt 0.06505300 0.26009798
vt 0.06887100 0.30369496
vt 0.13008700 0.25581700
vt 0.40489301 0.27453196
vt 0.43550399 0.27768201
vt 0.72466302 0.32369399
vt 0.57495099 0.29836404
vt 0.59594101 0.30181301
vt 0.09792100 0.25943303
vt 0.16431600 0.37753099
vt 0.54959798 0.29733199
vt 0.63703400 0.42591101
vt 0.61972898 0.30709100
vt 0.69914699 0.32004100
vt 0.67453498 0.31692499
vt 0.09711500 0.32832396
vt 0.20139299 0.27936196
vt 0.48590299 0.43380600
vt 0.64782500 0.31249499
vt 0.76199502 0.38467503
vt 0.75861502 0.35391402
vt 0.26358700 0.28914100
vt 0.23107100 0.28460097
vt 0.51859099 0.29578000
vt 0.73989701 0.33868301
vt 0.08382100 0.27826399
vt 0.15115800 0.27469099
vt 0.20614000 0.38839602
vt 0.36322799 0.29722500
vt 0.32245499 0.29418802
vt 0.73189998 0.39914000
vt 0.12723500 0.34685999
vt 0.43541801 0.42449999
vt 0.48298401 0.29414999
vt 0.57060099 0.42831999
vt 0.12314100 0.27155304
vt 0.24985600 0.39734197
vt 0.74374998 0.36798400
vt 0.71029598 0.33403099
vt 0.29715100 0.40545702
vt 0.34358299 0.41231298
vt 0.38906500 0.41782296
vt 0.42051300 0.29037899
vt 0.44999099 0.29134703
vt 0.58247900 0.31118399
vt 0.56031901 0.30920398
vt 0.60340703 0.31531101
vt 0.67724401 0.40536201
vt 0.68326700 0.33036304
vt 0.10510300 0.30984801
vt 0.15484899 0.36228001
vt 0.62861300 0.32063103
vt 0.65653098 0.32566601
vt 0.73255998 0.38166100
vt 0.51790798 0.42192900
vt 0.53242999 0.30844402
vt 0.72642398 0.35020000
vt 0.70909899 0.39019096
vt 0.12373900 0.28824198
vt 0.13327700 0.33236599
vt 0.18885000 0.36959201
vt 0.49731699 0.30693996
vt 0.60894799 0.40940601
vt 0.69541502 0.34483898
vt 0.71263498 0.36194503
vt 0.15082701 0.28585196
vt 0.46773300 0.41350996
vt 0.46374100 0.30407900
vt 0.58956999 0.32208502
vt 0.56968701 0.32132399
vt 0.60985398 0.32959497
vt 0.68678403 0.36455101
vt 0.66680402 0.34027600
vt 0.16393100 0.35039401
vt 0.23062500 0.37722802
vt 0.43528301 0.30267704
vt 0.54363400 0.32111597
vt 0.63517600 0.38869298
vt 0.63759500 0.33539301
vt 0.14615101 0.31809902
vt 0.19157800 0.28686100
vt 0.41133299 0.30290604
vt 0.54856998 0.40759897
vt 0.27648199 0.38520503
vt 0.41865200 0.40562701
vt 0.51151699 0.32060003
vt 0.32290700 0.39165699
vt 0.36965999 0.39818203
vt 0.58681500 0.33529496
vt 0.64898002 0.35287100
vt 0.17540300 0.33636904
vt 0.23214000 0.29508197
vt 0.47706300 0.31775999
vt 0.55989301 0.33693302
vt 0.61406898 0.34542203
vt 0.20184299 0.29988003
vt 0.20585801 0.35712999
vt 0.31463000 0.30465800
vt 0.27025899 0.30154204
vt 0.44657800 0.31476599
vt 0.49771100 0.40158600
vt 0.57788599 0.39086801
vt 0.35759899 0.30715799
vt 0.52764601 0.33679700
vt 0.60546100 0.36842799
vt 0.40339699 0.31730402
vt 0.58210897 0.35342002
vt 0.24159500 0.30658501
vt 0.25157300 0.36413097
vt 0.44805500 0.39338201
vt 0.49165899 0.33446300
vt 0.22070900 0.33998400
vt 0.31741899 0.31780303
vt 0.27853501 0.31375301
vt 0.30060700 0.37100399
vt 0.39874500 0.38440001
vt 0.45884100 0.32954901
vt 0.52695101 0.38819396
vt 0.54711002 0.35680801
vt 0.55642903 0.37127197
vt 0.35281900 0.31778896
vt 0.35053900 0.37847000
vt 0.43399701 0.32337797
vt 0.50710899 0.35438299
vt 0.32507700 0.34196800
vt 0.41260299 0.33993399
vt 0.47832999 0.38113999
vt 0.47076100 0.34973204
vt 0.51439798 0.36859500
vt 0.42906299 0.37181199
vt 0.38374400 0.36291701
vt 0.47353199 0.36461496
f 3/3 2/2 1/1
f 4/4 3/3 1/1
f 2/2 5/5 1/1
f 6/6 4/4 1/1
f 7/7 6/6 1/1
f 5/5 7/7 1/1
f 8/8 2/2 3/3
f 4/4 9/9 3/3
f 10/10 8/8 3/3
f 9/9 10/10 3/3
f 11/11 5/5 2/2
f 12/12 11/11 2/2
f 8/8 12/12 2/2
f 13/13 4/4 6/6
f 14/14 13/13 6/6
f 7/7 15/15 6/6
f 15/15 14/14 6/6
f 13/13 16/16 4/4
f 16/16 9/9 4/4
f 11/11 17/17 5/5
f 18/18 7/7 5/5
f 17/17 18/18 5/5
f 12/12 19/19 11/11
f 19/19 20/20 11/11
f 20/20 17/17 11/11
f 21/21 12/12 8/8
f 10/10 22/22 8/8
f 22/22 21/21 8/8
f 23/23 19/19 12/12
f 21/21 23/23 12/12
f 14/14 24/24 13/13
f 24/24 25/25 13/13
f 25/25 16/16 13/13
f 26/26 15/15 7/7
f 18/18 26/26 7/7
f 27/27 20/20 19/19
f 23/23 28/28 19/19
f 28/28 27/27 19/19
f 14/14 29/29 24/24
f 30/30 25/25 24/24
f 31/31 30/30 24/24
f 29/29 31/31 24/24
f 15/15 32/32 14/14
f 32/32 29/29 14/14
f 33/33 16/16 25/25
f 30/30 34/34 25/25
f 34/34 33/33 25/25
f 35/35 9/9 16/16
f 33/33 35/35 16/16
f 36/36 10/10 9/9
f 35/35 36/36 9/9
f 37/37 22/22 10/10
f 36/36 37/37 10/10
f 38/38 17/17 20/20
f 27/27 39/39 20/20
f 39/39 38/38 20/20
f 31/31 40/40 30/30
f 40/40 41/41 30/30
f 41/41 34/34 30/30
f 42/42 32/32 15/15
f 26/26 42/42 15/15
f 43/43 18/18 17/17
f 38/38 43/43 17/17
f 44/44 21/21 22/22
f 37/37 44/44 22/22
f 45/45 23/23 21/21
f 44/44 45/45 21/21
f 31/31 46/46 40/40
f 46/46 47/47 40/40
f 47/47 48/48 40/40
f 48/48 41/41 40/40
f 29/29 49/49 31/31
f 49/49 46/46 31/31
f 50/50 49/49 29/29
f 32/32 50/50 29/29
f 51/51 26/26 18/18
f 43/43 51/51 18/18
f 52/52 28/28 23/23
f 45/45 52/52 23/23
f 53/53 39/39 27/27
f 28/28 54/54 27/27
f 54/54 53/53 27/27
f 55/55 47/47 46/46
f 56/56 55/55 46/46
f 49/49 56/56 46/46
f 57/57 33/33 34/34
f 41/41 58/58 34/34
f 58/58 57/57 34/34
f 59/59 35/35 33/33
f 57/57 59/59 33/33
f 60/60 36/36 35/35
f 59/59 60/60 35/35
f 61/61 47/47 55/55
f 62/62 61/61 55/55
f 63/63 62/62 55/55
f 56/56 63/63 55/55
f 61/61 64/64 47/47
f 64/64 48/48 47/47
f 65/65 56/56 49/49
f 50/50 65/65 49/49
f 48/48 66/66 41/41
f 66/66 58/58 41/41
f 67/67 50/50 32/32
f 42/42 67/67 32/32
f 68/68 37/37 36/36
f 60/60 68/68 36/36
f 39/39 69/69 38/38
f 70/70 43/43 38/38
f 69/69 70/70 38/38
f 53/53 71/71 39/39
f 71/71 69/69 39/39
f 72/72 54/54 28/28
f 52/52 72/72 28/28
f 73/73 61/61 62/62
f 74/74 73/73 62/62
f 75/75 74/74 62/62
f 63/63 75/75 62/62
f 73/73 76/76 61/61
f 76/76 64/64 61/61
f 64/64 77/77 48/48
f 77/77 66/66 48/48
f 78/78 42/42 26/26
f 51/51 78/78 26/26
f 79/79 44/44 37/37
f 68/68 79/79 37/37
f 80/80 73/73 74/74
f 81/81 80/80 74/74
f 82/82 81/81 74/74
f 75/75 82/82 74/74
f 80/80 83/83 73/73
f 83/83 76/76 73/73
f 76/76 84/84 64/64
f 84/84 77/77 64/64
f 85/85 63/63 56/56
f 65/65 85/85 56/56
f 86/86 51/51 43/43
f 70/70 86/86 43/43
f 87/87 45/45 44/44
f 79/79 87/87 44/44
f 88/88 52/52 45/45
f 87/87 88/88 45/45
f 89/89 80/80 81/81
f 90/90 89/89 81/81
f 91/91 90/90 81/81
f 82/82 91/91 81/81
f 89/89 92/92 80/80
f 92/92 83/83 80/80
f 63/63 93/93 75/75
f 94/94 82/82 75/75
f 93/93 94/94 75/75
f 85/85 93/93 63/63
f 95/95 65/65 50/50
f 67/67 95/95 50/50
f 54/54 96/96 53/53
f 97/97 71/71 53/53
f 96/96 97/97 53/53
f 72/72 98/98 54/54
f 98/98 96/96 54/54
f 99/99 72/72 52/52
f 88/88 99/99 52/52
f 100/100 89/89 90/90
f 91/91 101/101 90/90
f 101/101 102/102 90/90
f 102/102 100/100 90/90
f 100/100 103/103 89/89
f 103/103 92/92 89/89
f 82/82 104/104 91/91
f 105/105 101/101 91/91
f 104/104 105/105 91/91
f 94/94 104/104 82/82
f 83/83 106/106 76/76
f 106/106 84/84 76/76
f 107/107 57/57 58/58
f 66/66 108/108 58/58
f 108/108 107/107 58/58
f 109/109 67/67 42/42
f 78/78 109/109 42/42
f 110/110 59/59 57/57
f 107/107 110/110 57/57
f 111/111 60/60 59/59
f 110/110 111/111 59/59
f 101/101 112/112 102/102
f 112/112 113/113 102/102
f 114/114 100/100 102/102
f 113/113 114/114 102/102
f 115/115 112/112 101/101
f 105/105 115/115 101/101
f 92/92 116/116 83/83
f 116/116 106/106 83/83
f 117/117 85/85 65/65
f 95/95 117/117 65/65
f 77/77 118/118 66/66
f 118/118 108/108 66/66
f 119/119 68/68 60/60
f 111/111 119/119 60/60
f 120/120 70/70 69/69
f 71/71 121/121 69/69
f 121/121 120/120 69/69
f 122/122 113/113 112/112
f 123/123 122/122 112/112
f 115/115 123/123 112/112
f 114/114 124/124 100/100
f 124/124 103/103 100/100
f 103/103 125/125 92/92
f 125/125 116/116 92/92
f 84/84 126/126 77/77
f 126/126 118/118 77/77
f 127/127 78/78 51/51
f 86/86 127/127 51/51
f 128/128 86/86 70/70
f 120/120 128/128 70/70
f 129/129 79/79 68/68
f 119/119 129/129 68/68
f 97/97 130/130 71/71
f 130/130 121/121 71/71
f 131/131 98/98 72/72
f 99/99 131/131 72/72
f 122/122 132/132 113/113
f 133/133 114/114 113/113
f 132/132 133/133 113/113
f 106/106 134/134 84/84
f 134/134 126/126 84/84
f 135/135 93/93 85/85
f 117/117 135/135 85/85
f 136/136 87/87 79/79
f 129/129 136/136 79/79
f 137/137 97/97 96/96
f 98/98 137/137 96/96
f 123/123 138/138 122/122
f 139/139 132/132 122/122
f 138/138 139/139 122/122
f 140/140 124/124 114/114
f 133/133 140/140 114/114
f 105/105 141/141 115/115
f 142/142 123/123 115/115
f 141/141 142/142 115/115
f 124/124 143/143 103/103
f 143/143 125/125 103/103
f 104/104 144/144 105/105
f 144/144 141/141 105/105
f 94/94 145/145 104/104
f 145/145 144/144 104/104
f 93/93 146/146 94/94
f 146/146 145/145 94/94
f 135/135 146/146 93/93
f 147/147 95/95 67/67
f 109/109 147/147 67/67
f 148/148 88/88 87/87
f 136/136 148/148 87/87
f 149/149 138/138 123/123
f 142/142 149/149 123/123
f 116/116 150/150 106/106
f 150/150 134/134 106/106
f 151/151 130/130 97/97
f 137/137 151/151 97/97
f 152/152 99/99 88/88
f 148/148 152/152 88/88
f 139/139 153/153 132/132
f 154/154 133/133 132/132
f 153/153 154/154 132/132
f 140/140 155/155 124/124
f 155/155 143/143 124/124
f 125/125 156/156 116/116
f 156/156 150/150 116/116
f 157/157 110/110 107/107
f 108/108 158/158 107/107
f 158/158 157/157 107/107
f 159/159 111/111 110/110
f 157/157 159/159 110/110
f 160/160 137/137 98/98
f 131/131 160/160 98/98
f 138/138 161/161 139/139
f 162/162 153/153 139/139
f 161/161 162/162 139/139
f 163/163 161/161 138/138
f 149/149 163/163 138/138
f 164/164 140/140 133/133
f 154/154 164/164 133/133
f 165/165 117/117 95/95
f 147/147 165/165 95/95
f 118/118 166/166 108/108
f 166/166 158/158 108/108
f 167/167 109/109 78/78
f 127/127 167/167 78/78
f 128/128 168/168 86/86
f 168/168 127/127 86/86
f 169/169 119/119 111/111
f 159/159 169/169 111/111
f 170/170 120/120 121/121
f 130/130 171/171 121/121
f 171/171 170/170 121/121
f 172/172 131/131 99/99
f 152/152 172/172 99/99
f 143/143 173/173 125/125
f 173/173 156/156 125/125
f 126/126 174/174 118/118
f 174/174 166/166 118/118
f 175/175 129/129 119/119
f 169/169 175/175 119/119
f 176/176 128/128 120/120
f 170/170 176/176 120/120
f 151/151 177/177 130/130
f 177/177 171/171 130/130
f 178/178 155/155 140/140
f 164/164 178/178 140/140
f 134/134 179/179 126/126
f 179/179 174/174 126/126
f 180/180 136/136 129/129
f 175/175 180/180 129/129
f 181/181 154/154 153/153
f 162/162 182/182 153/153
f 182/182 181/181 153/153
f 183/183 162/162 161/161
f 163/163 184/184 161/161
f 184/184 183/183 161/161
f 141/141 185/185 142/142
f 186/186 149/149 142/142
f 185/185 186/186 142/142
f 155/155 187/187 143/143
f 187/187 173/173 143/143
f 144/144 188/188 141/141
f 188/188 185/185 141/141
f 145/145 189/189 144/144
f 189/189 188/188 144/144
f 150/150 190/190 134/134
f 190/190 179/179 134/134
f 191/191 135/135 117/117
f 165/165 191/191 117/117
f 192/192 148/148 136/136
f 180/180 192/192 136/136
f 193/193 151/151 137/137
f 160/160 193/193 137/137
f 194/194 160/160 131/131
f 172/172 194/194 131/131
f 195/195 164/164 154/154
f 181/181 195/195 154/154
f 196/196 163/163 149/149
f 186/186 196/196 149/149
f 146/146 197/197 145/145
f 197/197 189/189 145/145
f 135/135 198/198 146/146
f 198/198 197/197 146/146
f 191/191 198/198 135/135
f 199/199 147/147 109/109
f 167/167 199/199 109/109
f 200/200 168/168 128/128
f 176/176 200/200 128/128
f 201/201 152/152 148/148
f 192/192 201/201 148/148
f 183/183 202/202 162/162
f 202/202 182/182 162/162
f 203/203 184/184 163/163
f 196/196 203/203 163/163
f 178/178 204/204 155/155
f 204/204 187/187 155/155
f 156/156 205/205 150/150
f 205/205 190/190 150/150
f 206/206 177/177 151/151
f 193/193 206/206 151/151
f 209/209 208/208 207/207
f 208/208 210/210 207/207
f 211/211 209/209 207/207
f 213/213 212/212 207/207
f 210/210 213/213 207/207
f 212/212 211/211 207/207
f 214/214 178/178 164/164
f 195/195 214/214 164/164
f 173/173 215/215 156/156
f 215/215 205/205 156/156
f 216/216 170/170 171/171
f 177/177 217/217 171/171
f 217/217 216/216 171/171
f 218/218 172/172 152/152
f 201/201 218/218 152/152
f 209/209 219/219 208/208
f 220/220 210/210 208/208
f 219/219 221/221 208/208
f 221/221 220/220 208/208
f 222/222 219/219 209/209
f 211/211 223/223 209/209
f 223/223 222/222 209/209
f 224/224 157/157 158/158
f 166/166 225/225 158/158
f 225/225 224/224 158/158
f 168/168 227/227 127/127
f 227/227 167/167 127/127
f 228/228 159/159 157/157
f 224/224 228/228 157/157
f 229/229 169/169 159/159
f 228/228 229/229 159/159
f 216/216 230/230 170/170
f 230/230 176/176 170/170
f 177/177 231/231 217/217
f 233/233 232/232 217/217
f 231/231 233/233 217/217
f 232/232 216/216 217/217
f 206/206 231/231 177/177
f 233/233 212/212 213/213
f 232/232 233/233 213/213
f 234/234 232/232 213/213
f 210/210 234/234 213/213
f 235/235 212/212 233/233
f 231/231 235/235 233/233
f 236/236 211/211 212/212
f 235/235 236/236 212/212
f 237/237 193/193 160/160
f 194/194 237/237 160/160
f 187/187 238/238 173/173
f 238/238 215/215 173/173
f 239/239 165/165 147/147
f 199/199 239/239 147/147
f 174/174 240/240 166/166
f 240/240 225/225 166/166
f 241/241 175/175 169/169
f 229/229 241/241 169/169
f 242/242 216/216 232/232
f 234/234 242/242 232/232
f 243/243 234/234 210/210
f 220/220 243/243 210/210
f 244/244 221/221 219/219
f 222/222 244/244 219/219
f 236/236 245/245 211/211
f 245/245 223/223 211/211
f 184/184 246/246 183/183
f 247/247 202/202 183/183
f 246/246 247/247 183/183
f 203/203 248/248 184/184
f 248/248 246/246 184/184
f 214/214 249/249 178/178
f 249/249 204/204 178/178
f 179/179 250/250 174/174
f 250/250 240/240 174/174
f 251/251 180/180 175/175
f 241/241 251/251 175/175
f 242/242 230/230 216/216
f 252/252 235/235 231/231
f 206/206 252/252 231/231
f 252/252 236/236 235/235
f 253/253 194/194 172/172
f 218/218 253/253 172/172
f 254/254 181/181 182/182
f 202/202 255/255 182/182
f 255/255 254/254 182/182
f 256/256 195/195 181/181
f 254/254 256/256 181/181
f 204/204 257/257 187/187
f 257/257 238/238 187/187
f 190/190 258/258 179/179
f 258/258 250/250 179/179
f 200/200 260/260 168/168
f 260/260 227/227 168/168
f 230/230 261/261 176/176
f 261/261 200/200 176/176
f 262/262 192/192 180/180
f 251/251 262/262 180/180
f 263/263 242/242 234/234
f 243/243 263/263 234/234
f 193/193 264/264 206/206
f 264/264 252/252 206/206
f 237/237 264/264 193/193
f 265/265 214/214 195/195
f 256/256 265/265 195/195
f 205/205 266/266 190/190
f 266/266 258/258 190/190
f 268/268 191/191 165/165
f 239/239 268/268 165/165
f 269/269 201/201 192/192
f 262/262 269/269 192/192
f 271/271 220/220 221/221
f 244/244 273/273 221/221
f 273/273 271/271 221/221
f 247/247 274/274 202/202
f 274/274 255/255 202/202
f 186/186 276/276 196/196
f 278/278 203/203 196/196
f 276/276 278/278 196/196
f 185/185 280/280 186/186
f 280/280 276/276 186/186
f 188/188 282/282 185/185
f 282/282 280/280 185/185
f 189/189 284/284 188/188
f 284/284 282/282 188/188
f 286/286 199/199 167/167
f 227/227 286/286 167/167
f 287/287 230/230 242/242
f 263/263 287/287 242/242
f 289/289 243/243 220/220
f 271/271 289/289 220/220
f 290/290 237/237 194/194
f 253/253 290/290 194/194
f 252/252 291/291 236/236
f 291/291 245/245 236/236
f 223/223 292/292 222/222
f 293/293 244/244 222/222
f 292/292 293/293 222/222
f 245/245 294/294 223/223
f 294/294 292/292 223/223
f 296/296 248/248 203/203
f 278/278 296/296 203/203
f 297/297 249/249 214/214
f 265/265 297/297 214/214
f 249/249 298/298 204/204
f 298/298 257/257 204/204
f 197/197 300/300 189/189
f 300/300 284/284 189/189
f 215/215 301/301 205/205
f 301/301 266/266 205/205
f 303/303 198/198 191/191
f 268/268 303/303 191/191
f 287/287 261/261 230/230
f 304/304 218/218 201/201
f 269/269 304/304 201/201
f 198/198 306/306 197/197
f 306/306 300/300 197/197
f 303/303 306/306 198/198
f 261/261 308/308 200/200
f 308/308 260/260 200/200
f 310/310 263/263 243/243
f 289/289 310/310 243/243
f 264/264 291/291 252/252
f 248/248 311/311 246/246
f 312/312 247/247 246/246
f 311/311 312/312 246/246
f 238/238 313/313 215/215
f 313/313 301/301 215/215
f 314/314 228/228 224/224
f 225/225 315/315 224/224
f 315/315 314/314 224/224
f 316/316 229/229 228/228
f 314/314 316/316 228/228
f 317/317 253/253 218/218
f 304/304 317/317 218/218
f 318/318 273/273 244/244
f 293/293 318/318 244/244
f 291/291 319/319 245/245
f 319/319 294/294 245/245
f 321/321 311/311 248/248
f 296/296 321/321 248/248
f 297/297 322/322 249/249
f 322/322 298/298 249/249
f 240/240 323/323 225/225
f 323/323 315/315 225/225
f 324/324 241/241 229/229
f 316/316 324/324 229/229
f 326/326 287/287 263/263
f 310/310 326/326 263/263
f 327/327 264/264 237/237
f 290/290 327/327 237/237
f 328/328 274/274 247/247
f 312/312 328/328 247/247
f 329/329 256/256 254/254
f 255/255 330/330 254/254
f 330/330 329/329 254/254
f 331/331 265/265 256/256
f 329/329 331/331 256/256
f 257/257 332/332 238/238
f 332/332 313/313 238/238
f 250/250 333/333 240/240
f 333/333 323/323 240/240
f 335/335 239/239 199/199
f 286/286 335/335 199/199
f 336/336 251/251 241/241
f 324/324 336/336 241/241
f 274/274 337/337 255/255
f 337/337 330/330 255/255
f 338/338 297/297 265/265
f 331/331 338/338 265/265
f 258/258 339/339 250/250
f 339/339 333/333 250/250
f 287/287 341/341 261/261
f 341/341 308/308 261/261
f 342/342 262/262 251/251
f 336/336 342/342 251/251
f 326/326 341/341 287/287
f 343/343 269/269 262/262
f 342/342 343/343 262/262
f 344/344 288/288 270/270
f 272/272 344/344 270/270
f 345/345 291/291 264/264
f 327/327 345/345 264/264
f 346/346 293/293 292/292
f 294/294 346/346 292/292
f 298/298 347/347 257/257
f 347/347 332/332 257/257
f 266/266 348/348 258/258
f 348/348 339/339 258/258
f 349/349 304/304 269/269
f 343/343 349/349 269/269
f 350/350 290/290 253/253
f 317/317 350/350 253/253
f 328/328 351/351 274/274
f 351/351 337/337 274/274
f 352/352 322/322 297/297
f 338/338 352/352 297/297
f 353/353 309/309 288/288
f 344/344 353/353 288/288
f 345/345 319/319 291/291
f 322/322 354/354 298/298
f 354/354 347/347 298/298
f 301/301 355/355 266/266
f 355/355 348/348 266/266
f 357/357 268/268 239/239
f 335/335 357/357 239/239
f 318/318 358/358 272/272
f 358/358 344/344 272/272
f 359/359 318/318 293/293
f 346/346 359/359 293/293
f 319/319 360/360 294/294
f 360/360 346/346 294/294
f 361/361 312/312 311/311
f 321/321 363/363 311/311
f 363/363 361/361 311/311
f 277/277 364/364 295/295
f 365/365 320/320 295/295
f 364/364 365/365 295/295
f 275/275 366/366 277/277
f 366/366 364/364 277/277
f 259/259 367/367 226/226
f 368/368 285/285 226/226
f 367/367 368/368 226/226
f 369/369 325/325 309/309
f 353/353 369/369 309/309
f 370/370 317/317 304/304
f 349/349 370/370 304/304
f 371/371 327/327 290/290
f 350/350 371/371 290/290
f 372/372 328/328 312/312
f 361/361 372/372 312/312
f 352/352 373/373 322/322
f 373/373 354/354 322/322
f 279/279 374/374 275/275
f 374/374 366/366 275/275
f 281/281 375/375 279/279
f 375/375 374/374 279/279
f 283/283 376/376 281/281
f 376/376 375/375 281/281
f 313/313 377/377 301/301
f 377/377 355/355 301/301
f 307/307 378/378 259/259
f 378/378 367/367 259/259
f 365/365 362/362 320/320
f 299/299 379/379 283/283
f 379/379 376/376 283/283
f 380/380 302/302 267/267
f 356/356 380/380 267/267
f 381/381 316/316 314/314
f 315/315 382/382 314/314
f 382/382 381/381 314/314
f 383/383 324/324 316/316
f 381/381 383/383 316/316
f 359/359 358/358 318/318
f 345/345 384/384 319/319
f 384/384 360/360 319/319
f 385/385 351/351 328/328
f 372/372 385/385 328/328
f 386/386 329/329 330/330
f 337/337 387/387 330/330
f 387/387 386/386 330/330
f 388/388 331/331 329/329
f 386/386 388/388 329/329
f 389/389 338/338 331/331
f 388/388 389/389 331/331
f 332/332 390/390 313/313
f 390/390 377/377 313/313
f 305/305 391/391 299/299
f 391/391 379/379 299/299
f 392/392 305/305 302/302
f 380/380 392/392 302/302
f 393/393 315/315 323/323
f 333/333 394/394 323/323
f 394/394 393/393 323/323
f 395/395 334/334 285/285
f 368/368 395/395 285/285
f 393/393 382/382 315/315
f 396/396 336/336 324/324
f 383/383 396/396 324/324
f 340/340 397/397 307/307
f 397/397 378/378 307/307
f 325/325 398/398 340/340
f 398/398 397/397 340/340
f 369/369 398/398 325/325
f 399/399 350/350 317/317
f 370/370 399/399 317/317
f 400/400 345/345 327/327
f 371/371 400/400 327/327
f 351/351 401/401 337/337
f 401/401 387/387 337/337
f 402/402 352/352 338/338
f 389/389 402/402 338/338
f 402/402 373/373 352/352
f 347/347 403/403 332/332
f 403/403 390/390 332/332
f 392/392 391/391 305/305
f 339/339 404/404 333/333
f 404/404 394/394 333/333
f 405/405 342/342 336/336
f 396/396 405/405 336/336
f 406/406 343/343 342/342
f 405/405 406/406 342/342
f 407/407 349/349 343/343
f 406/406 407/407 343/343
f 354/354 408/408 347/347
f 408/408 403/403 347/347
f 348/348 409/409 339/339
f 409/409 404/404 339/339
f 410/410 370/370 349/349
f 407/407 410/410 349/349
f 400/400 384/384 345/345
f 360/360 411/411 346/346
f 411/411 359/359 346/346
f 373/373 412/412 354/354
f 412/412 408/408 354/354
f 413/413 353/353 344/344
f 358/358 413/413 344/344
f 385/385 414/414 351/351
f 414/414 401/401 351/351
f 402/402 415/415 373/373
f 415/415 412/412 373/373
f 355/355 416/416 348/348
f 416/416 409/409 348/348
f 417/417 371/371 350/350
f 399/399 417/417 350/350
f 418/418 372/372 361/361
f 363/363 420/420 361/361
f 420/420 418/418 361/361
f 422/422 356/356 334/334
f 395/395 422/422 334/334
f 423/423 369/369 353/353
f 413/413 423/423 353/353
f 424/424 399/399 370/370
f 410/410 424/424 370/370
f 384/384 425/425 360/360
f 425/425 411/411 360/360
f 427/427 385/385 372/372
f 418/418 427/427 372/372
f 365/365 428/428 362/362
f 428/428 421/421 362/362
f 364/364 429/429 365/365
f 429/429 428/428 365/365
f 377/377 430/430 355/355
f 430/430 416/416 355/355
f 431/431 398/398 369/369
f 423/423 431/431 369/369
f 359/359 432/432 358/358
f 432/432 413/413 358/358
f 411/411 432/432 359/359
f 366/366 433/433 364/364
f 433/433 429/429 364/364
f 389/389 434/434 402/402
f 434/434 415/415 402/402
f 435/435 383/383 381/381
f 382/382 436/436 381/381
f 436/436 435/435 381/381
f 437/437 396/396 383/383
f 435/435 437/437 383/383
f 438/438 400/400 371/371
f 417/417 438/438 371/371
f 439/439 414/414 385/385
f 427/427 439/439 385/385
f 388/388 440/440 389/389
f 440/440 434/434 389/389
f 393/393 441/441 382/382
f 441/441 436/436 382/382
f 378/378 442/442 367/367
f 443/443 368/368 367/367
f 442/442 443/443 367/367
f 397/397 444/444 378/378
f 444/444 442/442 378/378
f 445/445 405/405 396/396
f 437/437 445/445 396/396
f 446/446 397/397 398/398
f 431/431 446/446 398/398
f 447/447 387/387 401/401
f 414/414 448/448 401/401
f 448/448 447/447 401/401
f 449/449 386/386 387/387
f 447/447 449/449 387/387
f 450/450 388/388 386/386
f 449/449 450/450 386/386
f 450/450 440/440 388/388
f 374/374 451/451 366/366
f 451/451 433/433 366/366
f 452/452 403/403 408/408
f 412/412 453/453 408/408
f 453/453 452/452 408/408
f 454/454 390/390 403/403
f 452/452 454/454 403/403
f 455/455 377/377 390/390
f 454/454 455/455 390/390
f 456/456 380/380 356/356
f 422/422 456/456 356/356
f 394/394 457/457 393/393
f 457/457 441/441 393/393
f 446/446 444/444 397/397
f 458/458 406/406 405/405
f 445/445 458/458 405/405
f 459/459 407/407 406/406
f 458/458 459/459 406/406
f 460/460 410/410 407/407
f 459/459 460/460 407/407
f 461/461 384/384 400/400
f 438/438 461/461 400/400
f 462/462 417/417 399/399
f 424/424 462/462 399/399
f 461/461 425/425 384/384
f 463/463 412/412 415/415
f 434/434 463/463 415/415
f 463/463 453/453 412/412
f 375/375 464/464 374/374
f 464/464 451/451 374/374
f 404/404 465/465 394/394
f 465/465 457/457 394/394
f 466/466 395/395 368/368
f 443/443 466/466 368/368
f 467/467 424/424 410/410
f 460/460 467/467 410/410
f 468/468 423/423 413/413
f 432/432 468/468 413/413
f 469/469 432/432 411/411
f 425/425 469/469 411/411
f 376/376 470/470 375/375
f 470/470 464/464 375/375
f 379/379 471/471 376/376
f 471/471 470/470 376/376
f 472/472 430/430 377/377
f 455/455 472/472 377/377
f 409/409 473/473 404/404
f 473/473 465/465 404/404
f 439/439 474/474 414/414
f 474/474 448/448 414/414
f 391/391 475/475 379/379
f 475/475 471/471 379/379
f 416/416 476/476 409/409
f 476/476 473/473 409/409
f 477/477 392/392 380/380
f 456/456 477/477 380/380
f 478/478 431/431 423/423
f 468/468 478/478 423/423
f 469/469 468/468 432/432
f 479/479 469/469 425/425
f 461/461 479/479 425/425
f 419/419 480/480 426/426
f 481/481 439/439 426/426
f 480/480 481/481 426/426
f 421/421 482/482 419/419
f 482/482 480/480 419/419
f 428/428 483/483 421/421
f 483/483 482/482 421/421
f 440/440 484/484 434/434
f 484/484 463/463 434/434
f 392/392 485/485 391/391
f 485/485 475/475 391/391
f 430/430 486/486 416/416
f 486/486 476/476 416/416
f 477/477 485/485 392/392
f 487/487 422/422 395/395
f 466/466 487/487 395/395
f 488/488 438/438 417/417
f 462/462 488/488 417/417
f 429/429 489/489 428/428
f 489/489 483/483 428/428
f 436/436 490/490 435/435
f 491/491 437/437 435/435
f 490/490 491/491 435/435
f 492/492 446/446 431/431
f 478/478 492/492 431/431
f 467/467 493/493 424/424
f 493/493 462/462 424/424
f 494/494 474/474 439/439
f 481/481 494/494 439/439
f 495/495 447/447 448/448
f 474/474 495/495 448/448
f 472/472 486/486 430/430
f 441/441 496/496 436/436
f 496/496 490/490 436/436
f 497/497 445/445 437/437
f 491/491 497/497 437/437
f 469/469 498/498 468/468
f 498/498 478/478 468/468
f 479/479 498/498 469/469
f 499/499 449/449 447/447
f 495/495 499/499 447/447
f 450/450 500/500 440/440
f 500/500 484/484 440/440
f 433/433 501/501 429/429
f 501/501 489/489 429/429
f 502/502 458/458 445/445
f 497/497 502/502 445/445
f 503/503 459/459 458/458
f 502/502 503/503 458/458
f 504/504 444/444 446/446
f 492/492 504/504 446/446
f 505/505 460/460 459/459
f 503/503 505/505 459/459
f 506/506 461/461 438/438
f 488/488 506/506 438/438
f 507/507 450/450 449/449
f 499/499 507/507 449/449
f 507/507 500/500 450/450
f 508/508 453/453 463/463
f 484/484 509/509 463/463
f 509/509 508/508 463/463
f 510/510 452/452 453/453
f 508/508 510/510 453/453
f 511/511 454/454 452/452
f 510/510 511/511 452/452
f 512/512 455/455 454/454
f 511/511 512/512 454/454
f 513/513 472/472 455/455
f 512/512 513/513 455/455
f 457/457 514/514 441/441
f 514/514 496/496 441/441
f 444/444 515/515 442/442
f 516/516 443/443 442/442
f 515/515 516/516 442/442
f 504/504 515/515 444/444
f 517/517 467/467 460/460
f 505/505 517/517 460/460
f 517/517 493/493 467/467
f 506/506 479/479 461/461
f 494/494 518/518 474/474
f 518/518 495/495 474/474
f 480/480 519/519 481/481
f 519/519 494/494 481/481
f 520/520 456/456 422/422
f 487/487 520/520 422/422
f 465/465 521/521 457/457
f 521/521 514/514 457/457
f 498/498 522/522 478/478
f 522/522 492/492 478/478
f 493/493 523/523 462/462
f 523/523 488/488 462/462
f 482/482 524/524 480/480
f 524/524 519/519 480/480
f 451/451 525/525 433/433
f 525/525 501/501 433/433
f 526/526 486/486 472/472
f 513/513 526/526 472/472
f 473/473 527/527 465/465
f 527/527 521/521 465/465
f 528/528 466/466 443/443
f 516/516 528/528 443/443
f 479/479 529/529 498/498
f 529/529 522/522 498/498
f 519/519 518/518 494/494
f 483/483 530/530 482/482
f 530/530 524/524 482/482
f 531/531 476/476 486/486
f 526/526 531/531 486/486
f 532/532 473/473 476/476
f 531/531 532/532 476/476
f 532/532 527/527 473/473
f 506/506 529/529 479/479
f 533/533 499/499 495/495
f 518/518 533/533 495/495
f 500/500 534/534 484/484
f 534/534 509/509 484/484
f 464/464 535/535 451/451
f 535/535 525/525 451/451
f 536/536 504/504 492/492
f 522/522 536/536 492/492
f 517/517 537/537 493/493
f 537/537 523/523 493/493
f 538/538 506/506 488/488
f 523/523 538/538 488/488
f 489/489 539/539 483/483
f 539/539 530/530 483/483
f 540/540 477/477 456/456
f 520/520 540/540 456/456
f 541/541 487/487 466/466
f 528/528 541/541 466/466
f 542/542 491/491 490/490
f 496/496 543/543 490/490
f 543/543 542/542 490/490
f 544/544 497/497 491/491
f 542/542 544/544 491/491
f 545/545 518/518 519/519
f 524/524 545/545 519/519
f 546/546 507/507 499/499
f 533/533 546/546 499/499
f 507/507 547/547 500/500
f 547/547 534/534 500/500
f 470/470 548/548 464/464
f 548/548 535/535 464/464
f 549/549 502/502 497/497
f 544/544 549/549 497/497
f 550/550 515/515 504/504
f 536/536 550/550 504/504
f 551/551 517/517 505/505
f 503/503 552/552 505/505
f 552/552 551/551 505/505
f 529/529 553/553 522/522
f 553/553 536/536 522/522
f 551/551 537/537 517/517
f 538/538 529/529 506/506
f 545/545 533/533 518/518
f 546/546 547/547 507/507
f 501/501 554/554 489/489
f 554/554 539/539 489/489
f 555/555 510/510 508/508
f 509/509 556/556 508/508
f 556/556 555/555 508/508
f 557/557 511/511 510/510
f 555/555 557/557 510/510
f 471/471 558/558 470/470
f 558/558 548/548 470/470
f 475/475 559/559 471/471
f 559/559 558/558 471/471
f 560/560 485/485 477/477
f 540/540 560/560 477/477
f 514/514 561/561 496/496
f 561/561 543/543 496/496
f 562/562 503/503 502/502
f 549/549 562/562 502/502
f 562/562 552/552 503/503
f 530/530 563/563 524/524
f 563/563 545/545 524/524
f 564/564 512/512 511/511
f 557/557 564/564 511/511
f 565/565 513/513 512/512
f 564/564 565/565 512/512
f 566/566 526/526 513/513
f 565/565 566/566 513/513
f 485/485 567/567 475/475
f 567/567 559/559 475/475
f 560/560 567/567 485/485
f 568/568 516/516 515/515
f 550/550 568/568 515/515
f 534/534 569/569 509/509
f 569/569 556/556 509/509
f 566/566 531/531 526/526
f 570/570 520/520 487/487
f 541/541 570/570 487/487
f 521/521 571/571 514/514
f 571/571 561/561 514/514
f 538/538 572/572 529/529
f 572/572 553/553 529/529
f 537/537 573/573 523/523
f 573/573 538/538 523/523
f 525/525 574/574 501/501
f 574/574 554/554 501/501
f 527/527 575/575 521/521
f 575/575 571/571 521/521
f 576/576 528/528 516/516
f 568/568 576/576 516/516
f 577/577 550/550 536/536
f 553/553 577/577 536/536
f 545/545 578/578 533/533
f 578/578 546/546 533/533
f 539/539 579/579 530/530
f 579/579 563/563 530/530
f 547/547 580/580 534/534
f 580/580 569/569 534/534
f 581/581 532/532 531/531
f 566/566 581/581 531/531
f 582/582 527/527 532/532
f 581/581 582/582 532/532
f 582/582 575/575 527/527
f 551/551 583/583 537/537
f 583/583 573/573 537/537
f 573/573 572/572 538/538
f 563/563 578/578 545/545
f 543/543 584/584 542/542
f 585/585 544/544 542/542
f 584/584 585/585 542/542
f 586/586 547/547 546/546
f 578/578 586/586 546/546
f 586/586 580/580 547/547
f 535/535 587/587 525/525
f 587/587 574/574 525/525
f 561/561 588/588 543/543
f 588/588 584/584 543/543
f 589/589 541/541 528/528
f 576/576 589/589 528/528
f 590/590 549/549 544/544
f 585/585 590/590 544/544
f 591/591 551/551 552/552
f 562/562 592/592 552/552
f 592/592 591/591 552/552
f 591/591 583/583 551/551
f 554/554 593/593 539/539
f 593/593 579/579 539/539
f 556/556 594/594 555/555
f 594/594 557/557 555/555
f 595/595 540/540 520/520
f 570/570 595/595 520/520
f 596/596 562/562 549/549
f 590/590 596/596 549/549
f 596/596 592/592 562/562
f 597/597 568/568 550/550
f 577/577 597/597 550/550
f 572/572 598/598 553/553
f 598/598 577/577 553/553
f 569/569 594/594 556/556
f 599/599 564/564 557/557
f 594/594 600/600 557/557
f 600/600 599/599 557/557
f 571/571 601/601 561/561
f 601/601 588/588 561/561
f 602/602 572/572 573/573
f 583/583 602/602 573/573
f 603/603 578/578 563/563
f 579/579 603/603 563/563
f 580/580 604/604 569/569
f 604/604 594/594 569/569
f 548/548 605/605 535/535
f 605/605 587/587 535/535
f 599/599 565/565 564/564
f 606/606 566/566 565/565
f 599/599 607/607 565/565
f 607/607 606/606 565/565
f 608/608 576/576 568/568
f 597/597 608/608 568/568
f 602/602 598/598 572/572
f 603/603 586/586 578/578
f 574/574 609/609 554/554
f 609/609 593/593 554/554
f 606/606 581/581 566/566
f 610/610 560/560 540/540
f 595/595 610/610 540/540
f 575/575 611/611 571/571
f 611/611 601/601 571/571
f 612/612 570/570 541/541
f 589/589 612/612 541/541
f 586/586 613/613 580/580
f 613/613 604/604 580/580
f 558/558 614/614 548/548
f 614/614 605/605 548/548
f 615/615 597/597 577/577
f 598/598 615/615 577/577
f 591/591 616/616 583/583
f 616/616 602/602 583/583
f 603/603 613/613 586/586
f 559/559 617/617 558/558
f 617/617 614/614 558/558
f 567/567 618/618 559/559
f 618/618 617/617 559/559
f 560/560 619/619 567/567
f 619/619 618/618 567/567
f 620/620 582/582 581/581
f 606/606 620/620 581/581
f 610/610 619/619 560/560
f 621/621 575/575 582/582
f 620/620 621/621 582/582
f 621/621 611/611 575/575
f 622/622 585/585 584/584
f 588/588 623/623 584/584
f 623/623 622/622 584/584
f 624/624 590/590 585/585
f 622/622 624/624 585/585
f 608/608 625/625 576/576
f 625/625 589/589 576/576
f 592/592 626/626 591/591
f 626/626 616/616 591/591
f 627/627 603/603 579/579
f 593/593 627/627 579/579
f 587/587 628/628 574/574
f 628/628 609/609 574/574
f 629/629 596/596 590/590
f 624/624 629/629 590/590
f 630/630 592/592 596/596
f 629/629 630/630 596/596
f 631/631 608/608 597/597
f 615/615 631/631 597/597
f 630/630 626/626 592/592
f 632/632 595/595 570/570
f 612/612 632/632 570/570
f 601/601 633/633 588/588
f 633/633 623/623 588/588
f 602/602 634/634 598/598
f 634/634 615/615 598/598
f 616/616 634/634 602/602
f 631/631 635/635 608/608
f 635/635 625/625 608/608
f 636/636 613/613 603/603
f 627/627 636/636 603/603
f 609/609 637/637 593/593
f 637/637 627/627 593/593
f 605/605 638/638 587/587
f 638/638 628/628 587/587
f 611/611 639/639 601/601
f 639/639 633/633 601/601
f 625/625 640/640 589/589
f 640/640 612/612 589/589
f 626/626 641/641 616/616
f 641/641 634/634 616/616
f 642/642 631/631 615/615
f 634/634 642/642 615/615
f 643/643 604/604 613/613
f 636/636 643/643 613/613
f 644/644 610/610 595/595
f 632/632 644/644 595/595
f 621/621 645/645 611/611
f 645/645 639/639 611/611
f 646/646 624/624 622/622
f 623/623 647/647 622/622
f 647/647 646/646 622/622
f 648/648 629/629 624/624
f 646/646 648/648 624/624
f 649/649 635/635 631/631
f 642/642 649/649 631/631
f 630/630 650/650 626/626
f 650/650 641/641 626/626
f 641/641 642/642 634/634
f 628/628 651/651 609/609
f 651/651 637/637 609/609
f 614/614 652/652 605/605
f 652/652 638/638 605/605
f 620/620 653/653 621/621
f 653/653 645/645 621/621
f 633/633 654/654 623/623
f 654/654 647/647 623/623
f 635/635 655/655 625/625
f 655/655 640/640 625/625
f 656/656 630/630 629/629
f 648/648 656/656 629/629
f 649/649 655/655 635/635
f 656/656 650/650 630/630
f 657/657 636/636 627/627
f 637/637 657/657 627/627
f 658/658 594/594 604/604
f 643/643 658/658 604/604
f 638/638 651/651 628/628
f 606/606 659/659 620/620
f 659/659 653/653 620/620
f 660/660 632/632 612/612
f 640/640 660/660 612/612
f 641/641 649/649 642/642
f 650/650 649/649 641/641
f 658/658 600/600 594/594
f 617/617 661/661 614/614
f 661/661 652/652 614/614
f 662/662 619/619 610/610
f 644/644 662/662 610/610
f 639/639 663/663 633/633
f 663/663 654/654 633/633
f 657/657 643/643 636/636
f 618/618 664/664 617/617
f 664/664 661/661 617/617
f 619/619 665/665 618/618
f 665/665 664/664 618/618
f 662/662 665/665 619/619
f 647/647 666/666 646/646
f 666/666 648/648 646/646
f 650/650 667/667 649/649
f 667/667 655/655 649/649
f 656/656 667/667 650/650
f 651/651 668/668 637/637
f 668/668 657/657 637/637
f 669/669 599/599 600/600
f 658/658 669/669 600/600
f 645/645 670/670 639/639
f 670/670 663/663 639/639
f 654/654 671/671 647/647
f 671/671 666/666 647/647
f 672/672 656/656 648/648
f 666/666 672/672 648/648
f 672/672 667/667 656/656
f 673/673 658/658 643/643
f 657/657 673/673 643/643
f 674/674 651/651 638/638
f 652/652 674/674 638/638
f 675/675 607/607 599/599
f 669/669 676/676 599/599
f 676/676 675/675 599/599
f 653/653 677/677 645/645
f 677/677 670/670 645/645
f 678/678 644/644 632/632
f 660/660 678/678 632/632
f 655/655 679/679 640/640
f 679/679 660/660 640/640
f 673/673 669/669 658/658
f 674/674 668/668 651/651
f 680/680 606/606 607/607
f 675/675 680/680 607/607
f 680/680 659/659 606/606
f 659/659 677/677 653/653
f 663/663 681/681 654/654
f 681/681 671/671 654/654
f 667/667 682/682 655/655
f 682/682 679/679 655/655
f 672/672 682/682 667/667
f 668/668 673/673 657/657
f 680/680 683/683 659/659
f 683/683 677/677 659/659
f 684/684 672/672 666/666
f 671/671 684/684 666/666
f 684/684 682/682 672/672
f 685/685 676/676 669/669
f 673/673 685/685 669/669
f 661/661 686/686 652/652
f 686/686 674/674 652/652
f 687/687 662/662 644/644
f 678/678 687/687 644/644
f 670/670 688/688 663/663
f 688/688 681/681 663/663
f 689/689 673/673 668/668
f 674/674 689/689 668/668
f 690/690 675/675 676/676
f 685/685 691/691 676/676
f 691/691 690/690 676/676
f 664/664 692/692 661/661
f 692/692 686/686 661/661
f 693/693 665/665 662/662
f 687/687 693/693 662/662
f 677/677 694/694 670/670
f 694/694 688/688 670/670
f 679/679 695/695 660/660
f 695/695 678/678 660/660
f 696/696 684/684 671/671
f 681/681 696/696 671/671
f 697/697 679/679 682/682
f 684/684 697/697 682/682
f 689/689 685/685 673/673
f 686/686 689/689 674/674
f 698/698 680/680 675/675
f 690/690 698/698 675/675
f 665/665 699/699 664/664
f 699/699 692/692 664/664
f 698/698 683/683 680/680
f 693/693 699/699 665/665
f 683/683 700/700 677/677
f 700/700 694/694 677/677
f 697/697 695/695 679/679
f 696/696 697/697 684/684
f 689/689 691/691 685/685
f 688/688 701/701 681/681
f 701/701 696/696 681/681
f 686/686 692/692 689/689
f 702/702 691/691 689/689
f 692/692 702/702 689/689
f 702/702 690/690 691/691
f 698/698 703/703 683/683
f 703/703 700/700 683/683
f 704/704 687/687 678/678
f 695/695 704/704 678/678
f 694/694 705/705 688/688
f 705/705 701/701 688/688
f 706/706 697/697 696/696
f 701/701 706/706 696/696
f 706/706 695/695 697/697
f 699/699 702/702 692/692
f 702/702 698/698 690/690
f 702/702 703/703 698/698
f 703/703 694/694 700/700
f 707/707 693/693 687/687
f 704/704 707/707 687/687
f 703/703 705/705 694/694
f 706/706 704/704 695/695
f 693/693 708/708 699/699
f 708/708 702/702 699/699
f 707/707 708/708 693/693
f 709/709 706/706 701/701
f 705/705 709/709 701/701
f 709/709 704/704 706/706
f 708/708 703/703 702/702
f 707/707 703/703 708/708
f 707/707 705/705 703/703
f 707/707 709/709 705/705
f 707/707 704/704 709/709

